<?xml version="1.0" encoding="UTF-8" standalone="no"?>
<!-- Created with Inkscape (http://www.inkscape.org/) -->

<svg
   xmlns:dc="http://purl.org/dc/elements/1.1/"
   xmlns:cc="http://creativecommons.org/ns#"
   xmlns:rdf="http://www.w3.org/1999/02/22-rdf-syntax-ns#"
   xmlns:svg="http://www.w3.org/2000/svg"
   xmlns="http://www.w3.org/2000/svg"
   xmlns:sodipodi="http://sodipodi.sourceforge.net/DTD/sodipodi-0.dtd"
   xmlns:inkscape="http://www.inkscape.org/namespaces/inkscape"
   width="52.875706mm"
   height="40.66629mm"
   viewBox="0 0 187.35485 144.09315"
   id="svg4788"
   version="1.1"
   inkscape:version="0.91 r13725"
   sodipodi:docname="aggregation.svg">
  <defs
     id="defs4790" />
  <sodipodi:namedview
     id="base"
     pagecolor="#ffffff"
     bordercolor="#666666"
     borderopacity="1.0"
     inkscape:pageopacity="0.0"
     inkscape:pageshadow="2"
     inkscape:zoom="3.6893015"
     inkscape:cx="51.992505"
     inkscape:cy="86.251426"
     inkscape:document-units="px"
     inkscape:current-layer="layer1"
     showgrid="false"
     fit-margin-top="0"
     fit-margin-left="0"
     fit-margin-right="0"
     fit-margin-bottom="0"
     inkscape:window-width="1920"
     inkscape:window-height="1016"
     inkscape:window-x="0"
     inkscape:window-y="27"
     inkscape:window-maximized="1" />
  <metadata
     id="metadata4793">
    <rdf:RDF>
      <cc:Work
         rdf:about="">
        <dc:format>image/svg+xml</dc:format>
        <dc:type
           rdf:resource="http://purl.org/dc/dcmitype/StillImage" />
        <dc:title></dc:title>
      </cc:Work>
    </rdf:RDF>
  </metadata>
  <g
     inkscape:label="Layer 1"
     inkscape:groupmode="layer"
     id="layer1"
     transform="translate(-249.10816,-336.59874)">
    <g
       style="font-style:normal;font-variant:normal;font-weight:100;font-stretch:normal;font-size:90px;line-height:125%;font-family:Diploma;-inkscape-font-specification:'Diploma, Thin';text-align:start;letter-spacing:0px;word-spacing:0px;writing-mode:lr-tb;text-anchor:start;fill:#ffffff;fill-opacity:1;stroke:none;stroke-width:1px;stroke-linecap:butt;stroke-linejoin:miter;stroke-opacity:1"
       id="text6546"
       transform="matrix(1.9429393,0,0,1.9429393,-147.998,-315.28557)">
      <path
         d="m 300.8128,386.94308 c 0,-9.14063 -6.37835,-16.77456 -14.91629,-18.78349 1.3058,-2.00892 2.05915,-4.36942 2.05915,-6.9308 0,-7.08147 -5.77567,-12.85714 -12.85714,-12.85714 -3.21429,0 -6.12723,1.15513 -8.33706,3.11384 -3.86718,-9.39174 -13.05803,-15.97099 -23.8058,-15.97099 -14.21317,0 -25.71429,11.50112 -25.71429,25.71429 0,0.70313 0.0502,1.45647 0.10045,2.1596 -7.63393,3.56585 -12.95759,11.35044 -12.95759,20.3404 0,12.40513 10.09487,22.5 22.5,22.5 l 54.64286,0 c 10.64732,0 19.28571,-8.63839 19.28571,-19.28571 z"
         id="path6551"
         inkscape:connector-curvature="0"
         style="fill:#ffffff" />
    </g>
    <rect
       style="color:#000000;clip-rule:nonzero;display:inline;overflow:visible;visibility:visible;opacity:0.95999995;isolation:auto;mix-blend-mode:normal;color-interpolation:sRGB;color-interpolation-filters:linearRGB;solid-color:#000000;solid-opacity:1;fill:#ffffff;fill-opacity:1;fill-rule:evenodd;stroke:none;stroke-width:2;stroke-linecap:square;stroke-linejoin:bevel;stroke-miterlimit:4;stroke-dasharray:0.2, 0.4;stroke-dashoffset:0;stroke-opacity:1;color-rendering:auto;image-rendering:auto;shape-rendering:auto;text-rendering:auto;enable-background:accumulate"
       id="rect5335"
       width="92.763222"
       height="61.592007"
       x="295.10953"
       y="385.06903"
       ry="0.23589218" />
    <g
       transform="scale(1.0958462,0.91253684)"
       style="font-style:normal;font-variant:normal;font-weight:100;font-stretch:normal;font-size:98.62615967px;line-height:125%;font-family:Diploma;-inkscape-font-specification:'Diploma, Thin';text-align:start;letter-spacing:0px;word-spacing:0px;writing-mode:lr-tb;text-anchor:start;fill:#086fa4;fill-opacity:1;stroke:none;stroke-width:1px;stroke-linecap:butt;stroke-linejoin:miter;stroke-opacity:1"
       id="text5336">
      <path
         d="m 311.56614,447.18907 c -16.56611,0 -33.18726,-2.97199 -42.26835,-9.35627 l 0,9.35627 c 0,7.76021 18.9327,14.08946 42.26835,14.08946 23.33566,0 42.26836,-6.32925 42.26836,-14.08946 l 0,-9.35627 c -9.08109,6.38428 -25.70224,9.35627 -42.26836,9.35627 z m 0,42.26836 c -16.56611,0 -33.18726,-2.972 -42.26835,-9.35628 l 0,9.35628 c 0,7.7602 18.9327,14.08945 42.26835,14.08945 23.33566,0 42.26836,-6.32925 42.26836,-14.08945 l 0,-9.35628 c -9.08109,6.38428 -25.70224,9.35628 -42.26836,9.35628 z m 0,-21.13418 c -16.56611,0 -33.18726,-2.97199 -42.26835,-9.35628 l 0,9.35628 c 0,7.76021 18.9327,14.08945 42.26835,14.08945 23.33566,0 42.26836,-6.32924 42.26836,-14.08945 l 0,-9.35628 c -9.08109,6.38429 -25.70224,9.35628 -42.26836,9.35628 z m 0,-63.40253 c -23.33565,0 -42.26835,6.32925 -42.26835,14.08945 l 0,7.04473 c 0,7.7602 18.9327,14.08945 42.26835,14.08945 23.33566,0 42.26836,-6.32925 42.26836,-14.08945 l 0,-7.04473 c 0,-7.7602 -18.9327,-14.08945 -42.26836,-14.08945 z"
         style="fill:#086fa4;fill-opacity:1"
         id="path12022"
         inkscape:connector-curvature="0" />
    </g>
    <path
       style="color:#000000;clip-rule:nonzero;display:inline;overflow:visible;visibility:visible;opacity:1;isolation:auto;mix-blend-mode:normal;color-interpolation:sRGB;color-interpolation-filters:linearRGB;solid-color:#000000;solid-opacity:1;fill:#6cfce6;fill-opacity:1;fill-rule:evenodd;stroke:none;stroke-width:1px;stroke-linecap:butt;stroke-linejoin:miter;stroke-miterlimit:4;stroke-dasharray:none;stroke-dashoffset:0;stroke-opacity:1;color-rendering:auto;image-rendering:auto;shape-rendering:auto;text-rendering:auto;enable-background:accumulate"
       d="m 309.55319,446.61584 28.18962,29.00278 32.79754,-29.27384 -8.67373,-22.22643 -22.76854,-13.82375 -23.5817,14.90797 z"
       id="path6544"
       inkscape:connector-curvature="0" />
    <g
       style="font-style:normal;font-variant:normal;font-weight:100;font-stretch:normal;font-size:90px;line-height:125%;font-family:Diploma;-inkscape-font-specification:'Diploma, Thin';text-align:start;letter-spacing:0px;word-spacing:0px;writing-mode:lr-tb;text-anchor:start;fill:#000000;fill-opacity:1;stroke:none;stroke-width:1px;stroke-linecap:butt;stroke-linejoin:miter;stroke-opacity:1"
       id="text6535"
       transform="translate(88.363599,31.713316)">
      <path
         d="m 276.1893,410.35694 c 0,0.85379 -0.30133,1.65736 -0.90401,2.26004 l -4.57032,4.57032 c -0.60267,0.60267 -1.40625,0.95424 -2.26004,0.95424 -0.85379,0 -1.65737,-0.35157 -2.26004,-0.95424 l -9.49219,-9.49219 0,25.21205 c 0,1.75781 -1.45648,3.21429 -3.21429,3.21429 l -6.42857,0 c -1.75781,0 -3.21429,-1.45648 -3.21429,-3.21429 l 0,-25.21205 -9.49218,9.49219 c -0.60268,0.60267 -1.40625,0.90401 -2.26005,0.90401 -0.85379,0 -1.65736,-0.30134 -2.26004,-0.90401 l -4.57031,-4.57032 c -0.60268,-0.60268 -0.90402,-1.40625 -0.90402,-2.26004 0,-0.8538 0.30134,-1.65737 0.90402,-2.26005 l 18.1808,-18.1808 4.57031,-4.57031 c 0.60268,-0.60268 1.40625,-0.90402 2.26005,-0.90402 0.85379,0 1.65736,0.30134 2.26004,0.90402 l 4.57031,4.57031 18.18081,18.1808 c 0.60268,0.60268 0.90401,1.40625 0.90401,2.26005 z m 12.65625,0.0502 c 0,-21.29464 -17.27678,-38.57143 -38.57142,-38.57143 -21.29465,0 -38.57143,17.27679 -38.57143,38.57143 0,21.29464 17.27678,38.57143 38.57143,38.57143 21.29464,0 38.57142,-17.27679 38.57142,-38.57143 z"
         id="path6540"
         inkscape:connector-curvature="0" />
    </g>
  </g>
</svg>
