<?xml version="1.0" encoding="UTF-8" standalone="no"?>
<!-- Created with Inkscape (http://www.inkscape.org/) -->

<svg
   xmlns:dc="http://purl.org/dc/elements/1.1/"
   xmlns:cc="http://creativecommons.org/ns#"
   xmlns:rdf="http://www.w3.org/1999/02/22-rdf-syntax-ns#"
   xmlns:svg="http://www.w3.org/2000/svg"
   xmlns="http://www.w3.org/2000/svg"
   xmlns:sodipodi="http://sodipodi.sourceforge.net/DTD/sodipodi-0.dtd"
   xmlns:inkscape="http://www.inkscape.org/namespaces/inkscape"
   width="110.3957mm"
   height="85.425186mm"
   viewBox="0 0 391.16587 302.68767"
   id="svg4213"
   version="1.1"
   inkscape:version="0.91 r13725"
   sodipodi:docname="api.svg">
  <defs
     id="defs4215" />
  <sodipodi:namedview
     id="base"
     pagecolor="#ffffff"
     bordercolor="#666666"
     borderopacity="1.0"
     inkscape:pageopacity="0.0"
     inkscape:pageshadow="2"
     inkscape:zoom="1.8487219"
     inkscape:cx="295.00312"
     inkscape:cy="121.81204"
     inkscape:document-units="px"
     inkscape:current-layer="layer1"
     showgrid="false"
     fit-margin-top="0"
     fit-margin-left="0"
     fit-margin-right="0"
     fit-margin-bottom="0"
     inkscape:window-width="1920"
     inkscape:window-height="1016"
     inkscape:window-x="0"
     inkscape:window-y="27"
     inkscape:window-maximized="1" />
  <metadata
     id="metadata4218">
    <rdf:RDF>
      <cc:Work
         rdf:about="">
        <dc:format>image/svg+xml</dc:format>
        <dc:type
           rdf:resource="http://purl.org/dc/dcmitype/StillImage" />
        <dc:title></dc:title>
      </cc:Work>
    </rdf:RDF>
  </metadata>
  <g
     inkscape:label="Layer 1"
     inkscape:groupmode="layer"
     id="layer1"
     transform="translate(-46.723927,-263.73666)">
    <g
       id="g4149"
       style="font-style:normal;font-variant:normal;font-weight:100;font-stretch:normal;font-size:292.75134277px;line-height:125%;font-family:Diploma;-inkscape-font-specification:'Diploma, Thin';text-align:start;letter-spacing:0px;word-spacing:0px;writing-mode:lr-tb;text-anchor:start;fill:#000000;fill-opacity:1;stroke:#ffffff;stroke-width:10.00000095;stroke-linecap:butt;stroke-linejoin:miter;stroke-opacity:1"
       transform="matrix(1.2452732,0,0,1.3194322,-53.386853,-146.0788)">
      <path
         id="path4151"
         style="fill:#ffffff;stroke:#ffffff"
         d="m 389.3796,468.21657 c 1.61253,-26.18146 -11.14906,-49.34621 -34.62115,-60.44654 1.48317,-8.8537 0.29713,-17.4593 -2.90039,-24.71859 -8.2904,-18.8216 -24.35424,-28.69472 -35.3715,-31.16834 -13.03643,-2.92697 -28.73124,-0.52462 -28.73124,-0.52462 -12.57916,-30.54939 -42.48085,-36.31639 -77.43534,-35.7167 -29.56968,0.5073 -82.03072,29.80124 -83.10574,69.43885 -0.062,2.28637 -1.98667,5.7522 -1.8233,8.03932 -24.83159,11.59897 -39.998316,35.90605 -39.998316,65.14851 0,40.35133 34.449036,76.73894 74.800366,76.73894 l 177.74189,0 c 18.50822,0 49.31521,-32.21566 51.44472,-66.79083 z"
         inkscape:connector-curvature="0"
         sodipodi:nodetypes="scsscsscssss" />
    </g>
    <g
       style="font-style:normal;font-variant:normal;font-weight:100;font-stretch:normal;font-size:292.75134277px;line-height:125%;font-family:Diploma;-inkscape-font-specification:'Diploma, Thin';text-align:start;letter-spacing:0px;word-spacing:0px;writing-mode:lr-tb;text-anchor:start;fill:#ffffff;fill-opacity:1;stroke:#004e8c;stroke-width:10.00000095;stroke-linecap:butt;stroke-linejoin:miter;stroke-opacity:1"
       id="text4761">
      <path
         d="m 399.05478,468.72387 c 0,-29.73256 -20.74745,-54.56415 -48.51962,-61.09878 4.24751,-6.53462 6.698,-14.21281 6.698,-22.54446 0,-23.03457 -18.78706,-41.82162 -41.82162,-41.82162 -10.45541,0 -19.93062,3.75741 -27.11871,10.12867 -12.57916,-30.54939 -42.47508,-51.95029 -77.43534,-51.95029 -46.2325,0 -83.64325,37.41074 -83.64325,83.64324 0,2.28712 0.16337,4.7376 0.32674,7.02472 -24.83159,11.59897 -42.148356,36.92065 -42.148356,66.16311 0,40.35133 32.836506,73.18784 73.187836,73.18784 l 177.74189,0 c 34.63353,0 62.73243,-28.0989 62.73243,-62.73243 z"
         style="fill:#ffffff"
         id="path12016"
         inkscape:connector-curvature="0" />
    </g>
    <g
       style="font-style:normal;font-variant:normal;font-weight:100;font-stretch:normal;font-size:90px;line-height:125%;font-family:Diploma;-inkscape-font-specification:'Diploma, Thin';text-align:start;letter-spacing:0px;word-spacing:0px;writing-mode:lr-tb;text-anchor:start;fill:#ff6600;fill-opacity:1;stroke:none;stroke-width:1px;stroke-linecap:butt;stroke-linejoin:miter;stroke-opacity:1"
       id="text4765">
      <path
         d="m 213.36357,463.05264 2.59277,0 c 2.68067,0 3.7793,0.0879 3.86719,-0.57129 -0.70312,-1.58203 -0.74707,-1.97754 -0.8789,-2.50488 l -0.61524,-2.19726 c -6.5918,-20.03907 -12.6123,-40.47364 -19.99512,-61.17188 0,-0.87891 -1.31836,-1.05469 -2.63671,-1.05469 -1.27442,0 -2.63672,0.21973 -3.47168,0.21973 l -4.21875,-0.21973 c -5.14161,0 -10.3711,0.21973 -15.60059,0.21973 l -7.29492,0 c -0.13184,0.0879 -0.17578,0.21973 -0.21973,0.39551 -2.19726,7.4707 -4.87793,14.76562 -7.25098,22.10449 l -1.18652,3.64746 0.044,0 -1.01075,3.12012 c -4.04296,12.43652 -8.3496,25.18066 -11.90918,37.70508 0.21973,0.30761 0.43946,0.57128 0.65918,0.79101 l 3.07618,0 c 0.3955,0 0.74707,-0.0439 1.23047,-0.0439 l 1.31835,0 c 3.82325,0 7.60254,-0.26368 11.42579,-0.26368 l 2.54882,0 c 0.35157,0 0.74707,0.0439 1.09864,0.0439 1.88965,0 3.77929,-0.0439 4.1748,-0.43945 0.79102,-3.25196 1.75781,-6.76758 2.59277,-10.01953 l 18.8086,-0.17579 c 0.57129,1.40625 1.80176,5.88868 2.06543,8.74512 l 0.21972,0.92285 c 0.0879,0.26367 0.17579,0.4834 0.30762,0.52735 l -0.0879,0 c 3.60352,0.26367 7.03125,0.30761 10.67871,0.30761 1.40625,0 2.85645,-0.0439 4.2627,-0.0439 l 2.68066,0 c 0.92285,0 1.80176,-0.0439 2.72461,-0.0439 z m -30.05859,-51.41601 c 0.79101,3.91113 1.75781,7.77832 2.63672,11.64551 l 1.66992,7.51464 c 0.35156,2.46094 1.01074,7.69043 1.01074,7.69043 0,0 -6.37207,0.0439 -10.50293,0.0439 -0.70312,0 -1.31836,-0.0439 -1.80176,-0.0439 l -2.59277,0 0.4834,-2.90039 c 1.71386,-7.60254 5.80078,-26.14746 7.07519,-26.45508 1.4502,0.61524 1.58203,1.36231 1.84571,2.10938 l 0.17578,0.39551 z"
         style="font-style:normal;font-variant:normal;font-weight:normal;font-stretch:normal;font-size:90px;line-height:125%;font-family:'Bowlby One';-inkscape-font-specification:'Bowlby One, Normal';text-align:start;writing-mode:lr-tb;text-anchor:start;fill:#ff6600;fill-opacity:1"
         id="path12009"
         inkscape:connector-curvature="0" />
      <path
         d="m 235.1165,396.12393 c -1.05469,0 -2.19726,0.044 -3.25195,0.0879 l -5.44922,0.21973 c -1.09863,0.17578 -3.64746,0.0439 -3.86719,0.13184 l 0,18.32519 c 0,6.15234 -0.0879,11.20606 -0.0879,18.06152 l 0,23.77442 c 0,2.54883 -0.0439,4.52637 0.74707,6.76758 l 25.09277,-0.39551 c 0.30762,-0.13184 0.57129,-0.4834 0.65918,-0.83496 l 0,-3.55957 c 0,-0.43946 -0.0439,-0.87891 -0.0439,-1.36231 0,-5.00976 0.21973,-11.11816 0.43945,-16.3916 l 9.49219,-0.39551 -0.0439,0 c 10.28321,-0.96679 25.7959,-4.35058 25.7959,-22.71972 0,-14.23828 -10.19531,-21.88477 -21.57715,-21.88477 -0.57128,0 -1.14257,0.0439 -1.88964,0.0879 l -0.30762,0 c -1.88965,-0.13183 -3.82324,-0.21973 -5.80078,-0.21973 -4.52637,0 -9.09668,0.30762 -12.91992,0.30762 l -6.98731,0 z m 25.7959,17.97363 c 0.4834,0.87891 0.65918,2.10938 0.65918,3.64747 0,8.04199 -7.03125,10.15136 -13.62305,10.2832 l -0.13183,-2.63672 0.0879,-3.2959 c 0.0439,-4.83398 0.0879,-12.96387 0.65918,-12.96387 4.79004,0 10.50293,0.0439 12.34863,5.00977 l 0,-0.0439 z"
         style="font-style:normal;font-variant:normal;font-weight:normal;font-stretch:normal;font-size:90px;line-height:125%;font-family:'Bowlby One';-inkscape-font-specification:'Bowlby One, Normal';text-align:start;writing-mode:lr-tb;text-anchor:start;fill:#ff6600;fill-opacity:1"
         id="path12011"
         inkscape:connector-curvature="0" />
      <path
         d="m 315.93193,396.60733 0.30762,0 c -0.0439,-0.43945 -0.0879,-0.65918 -0.13184,-0.74707 -2.19726,0.21973 -4.39453,0.26367 -6.85547,0.26367 -6.85547,0 -12.83203,-0.17578 -19.33593,-0.57129 -0.13184,0.17578 -0.21973,0.39551 -0.21973,0.61524 0,1.05468 0.0439,2.15332 0.17578,3.16406 l 0,1.4502 c 0,1.80175 0.0439,3.73535 0.13184,5.58105 -0.35157,12.96387 -0.52735,25.88379 -0.52735,38.54004 -0.57129,4.1748 -0.39551,8.17383 -0.4834,12.39258 l -0.13183,4.83398 c 0,0.35156 -0.0439,0.4834 -0.0439,0.74707 0.35157,0.21973 0.79102,0.4834 1.14258,0.65918 7.9541,0 16.04004,-0.39551 24.60938,-0.39551 l 1.49414,0 c 0.30761,-0.13183 0.65918,-0.43945 0.79101,-0.74707 l -0.17578,-6.32812 c -0.0439,-2.02149 -0.17578,-4.35059 -0.17578,-6.45996 0,-0.21973 -0.0439,-0.39551 -0.13184,-0.57129 l 0,-0.0879 c -0.0879,-0.17578 -0.13183,-0.39551 -0.13183,-0.65918 0,-11.99707 -0.30762,-23.51074 -0.30762,-35.77149 l 0,-2.54882 0,-13.35938 z"
         style="font-style:normal;font-variant:normal;font-weight:normal;font-stretch:normal;font-size:90px;line-height:125%;font-family:'Bowlby One';-inkscape-font-specification:'Bowlby One, Normal';text-align:start;writing-mode:lr-tb;text-anchor:start;fill:#ff6600;fill-opacity:1"
         id="path12013"
         inkscape:connector-curvature="0" />
    </g>
  </g>
</svg>
