<?xml version="1.0" encoding="UTF-8" standalone="no"?>
<!-- Created with Inkscape (http://www.inkscape.org/) -->

<svg
   xmlns:dc="http://purl.org/dc/elements/1.1/"
   xmlns:cc="http://creativecommons.org/ns#"
   xmlns:rdf="http://www.w3.org/1999/02/22-rdf-syntax-ns#"
   xmlns:svg="http://www.w3.org/2000/svg"
   xmlns="http://www.w3.org/2000/svg"
   xmlns:sodipodi="http://sodipodi.sourceforge.net/DTD/sodipodi-0.dtd"
   xmlns:inkscape="http://www.inkscape.org/namespaces/inkscape"
   width="83.479874mm"
   height="21.771429mm"
   viewBox="0 0 295.79483 77.142859"
   id="svg8158"
   version="1.1"
   inkscape:version="0.91 r13725"
   sodipodi:docname="cron.svg">
  <defs
     id="defs8160" />
  <sodipodi:namedview
     id="base"
     pagecolor="#ffffff"
     bordercolor="#666666"
     borderopacity="1.0"
     inkscape:pageopacity="0.0"
     inkscape:pageshadow="2"
     inkscape:zoom="1.0649874"
     inkscape:cx="8.4834442"
     inkscape:cy="201.04245"
     inkscape:document-units="px"
     inkscape:current-layer="layer1"
     showgrid="false"
     fit-margin-top="0"
     fit-margin-left="0"
     fit-margin-right="0"
     fit-margin-bottom="0"
     inkscape:window-width="1920"
     inkscape:window-height="1016"
     inkscape:window-x="0"
     inkscape:window-y="27"
     inkscape:window-maximized="1" />
  <metadata
     id="metadata8163">
    <rdf:RDF>
      <cc:Work
         rdf:about="">
        <dc:format>image/svg+xml</dc:format>
        <dc:type
           rdf:resource="http://purl.org/dc/dcmitype/StillImage" />
        <dc:title></dc:title>
      </cc:Work>
    </rdf:RDF>
  </metadata>
  <g
     inkscape:label="Layer 1"
     inkscape:groupmode="layer"
     id="layer1"
     transform="translate(-141.51656,-314.83323)">
    <g
       style="font-style:normal;font-variant:normal;font-weight:100;font-stretch:normal;font-size:90px;line-height:125%;font-family:Diploma;-inkscape-font-specification:'Diploma, Thin';text-align:start;letter-spacing:0px;word-spacing:0px;writing-mode:lr-tb;text-anchor:start;fill:#000000;fill-opacity:1;stroke:none;stroke-width:1px;stroke-linecap:butt;stroke-linejoin:miter;stroke-opacity:1"
       id="text8706">
      <path
         d="m 330.71429,335.72609 c 0,-0.90402 -0.70312,-1.60715 -1.60714,-1.60715 l -3.21428,0 c -0.90402,0 -1.60715,0.70313 -1.60715,1.60715 l 0,17.67857 -11.25,0 c -0.90401,0 -1.60714,0.70312 -1.60714,1.60714 l 0,3.21429 c 0,0.90402 0.70313,1.60714 1.60714,1.60714 l 16.07143,0 c 0.90402,0 1.60714,-0.70312 1.60714,-1.60714 l 0,-22.5 z m 20.89286,17.67857 c 0,15.06696 -12.25446,27.32143 -27.32143,27.32143 -15.06696,0 -27.32143,-12.25447 -27.32143,-27.32143 0,-15.06697 12.25447,-27.32143 27.32143,-27.32143 15.06697,0 27.32143,12.25446 27.32143,27.32143 z m 11.25,0 c 0,-21.29464 -17.27678,-38.57143 -38.57143,-38.57143 -21.29464,0 -38.57143,17.27679 -38.57143,38.57143 0,21.29464 17.27679,38.57143 38.57143,38.57143 21.29465,0 38.57143,-17.27679 38.57143,-38.57143 z"
         style=""
         id="path12028" />
    </g>
    <g
       style="font-style:normal;font-variant:normal;font-weight:normal;font-stretch:ultra-condensed;font-size:90px;line-height:125%;font-family:'Bowlby One SC';-inkscape-font-specification:'Bowlby One SC, Ultra-Condensed';text-align:start;letter-spacing:0px;word-spacing:0px;writing-mode:lr-tb;text-anchor:start;fill:#ff6600;fill-opacity:1;stroke:none;stroke-width:1px;stroke-linecap:butt;stroke-linejoin:miter;stroke-opacity:1"
       id="text8710">
      <path
         d="m 206.90718,362.23767 c -0.0879,-1.05469 -0.61523,-1.66992 -1.58203,-1.75781 l -23.90625,0 c -1.8457,1.8457 -1.31836,8.78906 -5.88867,8.78906 -4.92188,-0.26367 -5.80078,-6.5918 -5.80078,-11.25 0,-1.66992 0.17578,-3.07617 0.17578,-4.21875 0.35156,-6.85547 -0.70313,-16.875 6.94336,-16.875 5.80078,0 2.46093,9.22852 6.67968,9.22852 0.43946,0 0.87891,-0.0879 1.31836,-0.0879 2.90039,0 7.47071,0.17578 11.68946,0.17578 5.00976,0 9.66797,-0.17578 9.66797,-1.40625 l 0,-4.21875 c -1.40625,-12.74414 -9.84375,-22.41211 -29.17969,-22.41211 -13.71094,0 -34.01367,6.41601 -35.50781,28.74023 l 0,3.86719 c 0,15.55664 4.6582,37.79297 33.39843,37.79297 16.83106,0 29.92676,-8.39356 31.99219,-26.36719 z"
         style=""
         id="path12034" />
      <path
         d="m 276.34077,385.96814 c 0.26368,0 0.35157,-0.26367 0.35157,-0.87891 -0.35157,-1.31836 -1.40625,-2.54882 -1.66992,-3.86718 l 0,-3.86719 c -1.05469,-8.61328 -0.26368,-21.26953 -11.16211,-24.69727 6.67968,-3.07617 10.72265,-7.91015 10.72265,-15.55664 0,-10.81054 -7.03125,-17.05078 -20.39062,-17.40234 l -38.32032,0 c -1.8457,0 -3.51562,0.17578 -3.51562,1.23047 l 0,65.5664 c 0.43945,0.26368 0.79102,0.43946 1.23047,0.61524 2.72461,-0.0879 5.36133,-0.0879 8.08594,-0.0879 l 6.32812,0 c 3.42774,0 11.42578,0.52734 11.68945,-1.40625 l 0,-21.44532 1.9336,0 c 4.21875,0 5.625,1.14258 5.88867,7.11915 0.70312,4.04296 1.49414,14.67773 3.60352,15.38085 l 4.39453,0 c 1.31836,0.0879 2.8125,0.0879 4.30664,0.0879 3.2959,0 14.37011,1.3623 16.52343,-0.79102 z m -36.91406,-47.63672 c 0,-2.19726 0.0879,-3.60351 1.05469,-4.04297 l 1.05469,0 c 2.98828,0 9.75586,0.0879 9.75586,5.80078 0,6.76758 -5.53711,8.4375 -10.01953,8.4375 -1.9336,-1.93359 -1.84571,-6.85547 -1.84571,-10.19531 z"
         style=""
         id="path12036" />
    </g>
    <g
       style="font-style:normal;font-variant:normal;font-weight:normal;font-stretch:ultra-condensed;font-size:90px;line-height:125%;font-family:'Bowlby One SC';-inkscape-font-specification:'Bowlby One SC, Ultra-Condensed';text-align:start;letter-spacing:0px;word-spacing:0px;writing-mode:lr-tb;text-anchor:start;fill:#ff6600;fill-opacity:1;stroke:none;stroke-width:1px;stroke-linecap:butt;stroke-linejoin:miter;stroke-opacity:1"
       id="text8714">
      <path
         d="m 369.89926,386.09998 1.9336,1.05468 20.21484,0 c 1.31836,0 1.75781,-1.05468 1.75781,-2.02148 l 0,-5.53711 c 0,-3.86719 -0.17578,-7.73438 -0.17578,-11.60156 0,-5.18555 0.0879,-10.28321 0.0879,-15.46875 3.55957,9.62402 7.16309,19.2041 10.72266,28.82812 1.05468,2.90039 2.02148,5.36133 2.54883,5.53711 l 12.91992,0 c 4.57031,0 8.87695,-0.17578 13.44726,-0.17578 l 1.14258,0 c 1.31836,0 2.54883,-0.17578 2.8125,-1.14258 l 0,-30.49805 c 0,-11.60156 0,-22.76367 -0.26367,-34.98046 0,-0.0879 -0.26367,-0.26368 -0.70313,-0.26368 l -3.33984,0 c -2.19727,0 -6.76758,-0.17578 -10.72266,-0.17578 -3.77929,0 -7.03125,0.17578 -7.03125,1.23047 0.0879,5.88867 -0.17578,11.60156 -0.17578,17.22656 l 0,17.05079 -6.15234,-16.08399 c -2.37305,-5.80078 -6.76758,-19.16016 -7.73438,-19.16016 l -30.23437,0 c -0.17578,0.0879 -0.35156,0.70313 -0.35156,1.14258 l 0,3.60352 c -0.35157,13.97461 -0.79102,27.59765 -0.70313,41.57226 l 0,19.86329 z m 67.14844,-65.91797 0,-0.17578 0,0.17578 z"
         style=""
         id="path12031" />
    </g>
  </g>
</svg>
