<?xml version="1.0" encoding="UTF-8" standalone="no"?>
<svg
   xmlns:dc="http://purl.org/dc/elements/1.1/"
   xmlns:cc="http://creativecommons.org/ns#"
   xmlns:rdf="http://www.w3.org/1999/02/22-rdf-syntax-ns#"
   xmlns:svg="http://www.w3.org/2000/svg"
   xmlns="http://www.w3.org/2000/svg"
   xmlns:sodipodi="http://sodipodi.sourceforge.net/DTD/sodipodi-0.dtd"
   xmlns:inkscape="http://www.inkscape.org/namespaces/inkscape"
   viewBox="0 0 68.557587 89.981827"
   version="1.1"
   width="68.557587"
   height="89.981827"
   id="svg4820"
   inkscape:version="0.91 r13725"
   sodipodi:docname="google-sheets.svg">
  <metadata
     id="metadata4835">
    <rdf:RDF>
      <cc:Work
         rdf:about="">
        <dc:format>image/svg+xml</dc:format>
        <dc:type
           rdf:resource="http://purl.org/dc/dcmitype/StillImage" />
        <dc:title></dc:title>
      </cc:Work>
    </rdf:RDF>
  </metadata>
  <defs
     id="defs4833" />
  <sodipodi:namedview
     pagecolor="#ffffff"
     bordercolor="#666666"
     borderopacity="1"
     objecttolerance="10"
     gridtolerance="10"
     guidetolerance="10"
     inkscape:pageopacity="0"
     inkscape:pageshadow="2"
     inkscape:window-width="948"
     inkscape:window-height="480"
     id="namedview4831"
     showgrid="false"
     fit-margin-top="0"
     fit-margin-left="0"
     fit-margin-right="0"
     fit-margin-bottom="0"
     inkscape:zoom="2.4071613"
     inkscape:cx="42.719032"
     inkscape:cy="55.805842"
     inkscape:window-x="0"
     inkscape:window-y="27"
     inkscape:window-maximized="0"
     inkscape:current-layer="svg4820" />
  <g
     id="surface1"
     transform="matrix(2.1424245,0,0,2.1424245,-17.139396,-6.4272735)">
    <path
       style="fill:#43a047"
       d="M 37,45 11,45 C 9.34375,45 8,43.65625 8,42 L 8,6 C 8,4.34375 9.34375,3 11,3 l 19,0 10,10 0,29 c 0,1.65625 -1.34375,3 -3,3 z"
       id="path4823"
       inkscape:connector-curvature="0" />
    <path
       style="fill:#c8e6c9"
       d="M 40,13 30,13 30,3 Z"
       id="path4825"
       inkscape:connector-curvature="0" />
    <path
       style="fill:#2e7d32"
       d="M 30,13 40,23 40,13 Z"
       id="path4827"
       inkscape:connector-curvature="0" />
    <path
       style="fill:#e8f5e9"
       d="m 31,23 -16,0 0,14 18,0 0,-14 z m -14,2 4,0 0,2 -4,0 z m 0,4 4,0 0,2 -4,0 z m 0,4 4,0 0,2 -4,0 z m 14,2 -8,0 0,-2 8,0 z m 0,-4 -8,0 0,-2 8,0 z m 0,-4 -8,0 0,-2 8,0 z"
       id="path4829"
       inkscape:connector-curvature="0" />
  </g>
</svg>
