<?xml version="1.0" encoding="UTF-8" standalone="no"?>
<!-- Created with Inkscape (http://www.inkscape.org/) -->

<svg
   xmlns:dc="http://purl.org/dc/elements/1.1/"
   xmlns:cc="http://creativecommons.org/ns#"
   xmlns:rdf="http://www.w3.org/1999/02/22-rdf-syntax-ns#"
   xmlns:svg="http://www.w3.org/2000/svg"
   xmlns="http://www.w3.org/2000/svg"
   xmlns:xlink="http://www.w3.org/1999/xlink"
   xmlns:sodipodi="http://sodipodi.sourceforge.net/DTD/sodipodi-0.dtd"
   xmlns:inkscape="http://www.inkscape.org/namespaces/inkscape"
   id="svg2985"
   version="1.1"
   inkscape:version="0.91 r13725"
   width="192.60675"
   height="23.540625"
   xml:space="preserve"
   sodipodi:docname="develevation-logo.svg"
   inkscape:export-filename="/home/jsturgis/Desktop/develevation-logo.png"
   inkscape:export-xdpi="1401.8201"
   inkscape:export-ydpi="1401.8201"><metadata
     id="metadata2991"><rdf:RDF><cc:Work
         rdf:about=""><dc:format>image/svg+xml</dc:format><dc:type
           rdf:resource="http://purl.org/dc/dcmitype/StillImage" /><dc:title></dc:title></cc:Work></rdf:RDF></metadata><defs
     id="defs2989"><radialGradient
       fx="0"
       fy="0"
       cx="0"
       cy="0"
       r="1"
       gradientUnits="userSpaceOnUse"
       gradientTransform="matrix(180.68962,0,0,-180.68962,104.0625,76.5)"
       spreadMethod="pad"
       id="radialGradient3007"><stop
         style="stop-opacity:1;stop-color:#ffffff"
         offset="0"
         id="stop3009" /><stop
         style="stop-color:#eaedef;stop-opacity:1;"
         offset="1"
         id="stop3011" /></radialGradient><clipPath
       clipPathUnits="userSpaceOnUse"
       id="clipPath3041"><path
         d="m 0,153 208.125,0 0,-153 L 0,0 0,153 Z"
         id="path3043"
         inkscape:connector-curvature="0" /></clipPath><linearGradient
       x1="0"
       y1="0"
       x2="1"
       y2="0"
       gradientUnits="userSpaceOnUse"
       gradientTransform="matrix(0,5.5371094,5.5371094,0,157.71484,70.732422)"
       spreadMethod="pad"
       id="linearGradient3061"><stop
         style="stop-color:#b3eef9;stop-opacity:1;"
         offset="0"
         id="stop3063" /><stop
         style="stop-color:#64eaf2;stop-opacity:1;"
         offset="0.80368"
         id="stop3065" /><stop
         style="stop-color:#dcf7fc;stop-opacity:1;"
         offset="1"
         id="stop3067" /></linearGradient><clipPath
       clipPathUnits="userSpaceOnUse"
       id="clipPath3075"><path
         d="m 0,153 208.125,0 0,-153 L 0,0 0,153 Z"
         id="path3077"
         inkscape:connector-curvature="0" /></clipPath><linearGradient
       x1="0"
       y1="0"
       x2="1"
       y2="0"
       gradientUnits="userSpaceOnUse"
       gradientTransform="matrix(0,18.831543,18.831543,0,50.464844,67.083984)"
       spreadMethod="pad"
       id="linearGradient3095"
       xlink:href="#linearGradient3061"><stop
         style="stop-color:#7ad5eb;stop-opacity:1;"
         offset="0"
         id="stop3097" /><stop
         style="stop-color:#eefdfe;stop-opacity:1;"
         offset="0.80368"
         id="stop3099" /><stop
         style="stop-color:#acdbf9;stop-opacity:1;"
         offset="1"
         id="stop3101" /></linearGradient><clipPath
       clipPathUnits="userSpaceOnUse"
       id="clipPath3109"><path
         d="m 0,153 208.125,0 0,-153 L 0,0 0,153 Z"
         id="path3111"
         inkscape:connector-curvature="0" /></clipPath><clipPath
       clipPathUnits="userSpaceOnUse"
       id="clipPath3121"><path
         d="m 70.393,82.476 0.582,0 -2.789,-5.617 c 0.654,-0.014 1.32,-0.035 1.985,-0.056 l 0,0 2.81,5.673 0.544,0 0.043,2.712 -3.175,-2.712 z m -5.606,-2.529 0.557,0 -1.518,-3.037 c 0.665,-0.003 1.332,-0.006 2.01,-0.012 l 0,0 1.522,3.049 0.562,0 0.044,2.714 -3.177,-2.714 z m 91.935,-0.358 c -1.321,0 -2.404,-0.079 -3.224,-0.224 l 0,0 c -0.773,-0.142 -1.378,-0.413 -1.803,-0.801 l 0,0 c -0.419,-0.387 -0.708,-0.935 -0.865,-1.633 l 0,0 c -0.167,-0.741 -0.251,-1.716 -0.251,-2.897 l 0,0 0,-1.103 c 0,-0.404 0.014,-0.775 0.034,-1.128 l 0,0 c 0.22,0.021 0.436,0.043 0.655,0.067 l 0,0 c -0.015,0.327 -0.026,0.674 -0.026,1.061 l 0,0 0,1.103 c 0,1.061 0.052,1.88 0.162,2.501 l 0,0 c 0.117,0.675 0.383,1.2 0.796,1.563 l 0,0 c 0.406,0.355 0.987,0.582 1.732,0.678 l 0,0 c 0.692,0.088 1.631,0.132 2.79,0.132 l 0,0 2.006,0 c 0.767,0 1.432,-0.02 1.989,-0.058 l 0,0 c 0.57,-0.038 1.061,-0.112 1.464,-0.222 l 0,0 c 0.426,-0.117 0.777,-0.293 1.048,-0.53 l 0,0 c 0.275,-0.235 0.485,-0.555 0.627,-0.944 l 0,0 c 0.13,-0.362 0.221,-0.808 0.267,-1.328 l 0,0 c 0.044,-0.494 0.066,-1.099 0.066,-1.792 l 0,0 0,-0.288 c 0.221,0.042 0.441,0.086 0.661,0.13 l 0,0 0,0.158 c 0,1.188 -0.083,2.163 -0.249,2.897 l 0,0 c -0.157,0.695 -0.447,1.244 -0.867,1.633 l 0,0 c -0.425,0.388 -1.027,0.659 -1.793,0.801 l 0,0 c -0.812,0.145 -1.89,0.224 -3.196,0.224 l 0,0 -2.023,0 z m -129.37,-0.058 0,-5.5 c 0.684,0.125 1.488,0.266 2.408,0.415 l 0,0 0,3.21 5.812,0 c 0.587,0 1.06,-0.052 1.449,-0.16 l 0,0 c 0.411,-0.113 0.747,-0.298 1,-0.551 l 0,0 c 0.26,-0.26 0.438,-0.599 0.53,-1.008 l 0,0 c 0.021,-0.091 0.032,-0.202 0.047,-0.302 l 0,0 c 0.778,0.082 1.582,0.165 2.415,0.248 l 0,0 C 40.97,76.33 40.906,76.74 40.808,77.09 l 0,0 c -0.168,0.585 -0.443,1.064 -0.82,1.421 l 0,0 c -0.38,0.356 -0.887,0.617 -1.508,0.775 l 0,0 c -0.654,0.162 -1.47,0.245 -2.431,0.245 l 0,0 -8.697,0 z m 152.763,-0.017 0,-1.678 c 0.24,0.082 0.457,0.16 0.663,0.23 l 0,0 0,1.448 -0.663,0 z m -12.764,0 0,-5.131 c 0.218,0.047 0.446,0.094 0.662,0.142 l 0,0 0,4.637 1.201,0 3.118,-3.616 c 0.244,0.062 0.479,0.125 0.716,0.184 l 0,0 -3.256,3.784 -2.441,0 z m -20.872,0 0,-8.074 c 0.225,0.016 0.439,0.037 0.663,0.053 l 0,0 0,8.021 -0.663,0 z m -15.998,0 0,-0.663 6.233,0 0,-7.846 c 0.223,0.003 0.44,0.014 0.661,0.017 l 0,0 0,7.829 6.234,0 0,0.663 -13.128,0 z m -5.036,0 4.327,-8.366 -3.24,0 c 1.384,-0.059 2.747,-0.1 4.088,-0.126 l 0,0 -4.406,8.492 -0.769,0 z m -0.869,0 -4.154,-8.007 c 0.243,-0.016 0.491,-0.04 0.733,-0.059 l 0,0 4.173,8.066 -0.752,0 z m -5.206,0 -3.921,-7.548 c 0.246,-0.026 0.499,-0.058 0.746,-0.079 l 0,0 3.955,7.627 -0.78,0 z m -13.247,0 3.555,-6.853 c 0.28,-0.037 0.552,-0.071 0.831,-0.11 l 0,0 -3.606,6.963 -0.78,0 z m -12.79,0 0,-4.465 c 0.219,-0.029 0.44,-0.056 0.661,-0.084 l 0,0 0,3.886 10.023,0 0,0.663 -10.684,0 z m -12.911,0 0,-3.218 c 0.218,-0.017 0.442,-0.033 0.662,-0.05 l 0,0 0,3.268 -0.662,0 z m -5.962,0 -0.33,-0.663 3.295,0 0,0.663 -2.965,0 z m -16.732,0 1.311,-2.628 c 0.658,0.008 1.331,0.014 2.006,0.021 l 0,0 -1.305,2.607 -2.012,0 z m -14.305,0 0,-1.875 13.116,0 -0.935,1.875 -12.181,0 z m 113.749,-3.575 c -0.613,0 -1.104,-0.025 -1.458,-0.07 l 0,0 c -0.3,-0.037 -0.525,-0.119 -0.669,-0.245 l 0,0 c -0.139,-0.12 -0.224,-0.301 -0.268,-0.556 l 0,0 c -0.055,-0.305 -0.081,-0.735 -0.081,-1.276 l 0,0 0,-0.602 c 0,-0.368 0.018,-0.665 0.044,-0.925 l 0,0 c 2.099,0.262 4.107,0.551 5.993,0.864 l 0,0 c 0,0.02 0.002,0.037 0.002,0.061 l 0,0 0,0.602 c 0,0.363 -0.011,0.675 -0.036,0.935 l 0,0 c -0.019,0.236 -0.057,0.435 -0.116,0.59 l 0,0 c -0.047,0.135 -0.112,0.232 -0.197,0.307 l 0,0 c -0.087,0.076 -0.212,0.137 -0.372,0.179 l 0,0 c -0.185,0.054 -0.42,0.087 -0.696,0.108 l 0,0 c -0.293,0.017 -0.644,0.028 -1.05,0.028 l 0,0 -1.096,0 z m -56.2,-1.942 c 0.905,-0.138 1.816,-0.283 2.732,-0.431 l 0,0 0,0.431 -2.732,0 z"
         id="path3123"
         inkscape:connector-curvature="0" /></clipPath><linearGradient
       x1="0"
       y1="0"
       x2="1"
       y2="0"
       gradientUnits="userSpaceOnUse"
       gradientTransform="matrix(0,14.182129,14.182129,0,104.06445,71.004883)"
       spreadMethod="pad"
       id="linearGradient3133"><stop
         style="stop-opacity:0.48000305;stop-color:#ffffff"
         offset="0"
         id="stop3135" /><stop
         style="stop-opacity:0;stop-color:#ffffff"
         offset="1"
         id="stop3137" /></linearGradient><mask
       maskUnits="userSpaceOnUse"
       x="0"
       y="0"
       width="1"
       height="1"
       id="mask3139"><g
         id="g3141"><g
           id="g3143"><g
             id="g3145"><g
               id="g3147"><path
                 d="m -32768,32767 65535,0 0,-65534 -65535,0 0,65534 z"
                 style="fill:url(#linearGradient3133);stroke:none"
                 id="path3149"
                 inkscape:connector-curvature="0" /></g></g></g></g></mask><linearGradient
       x1="0"
       y1="0"
       x2="1"
       y2="0"
       gradientUnits="userSpaceOnUse"
       gradientTransform="matrix(0,14.182129,14.182129,0,104.06445,71.004883)"
       spreadMethod="pad"
       id="linearGradient3155"><stop
         style="stop-opacity:1;stop-color:#ffffff"
         offset="0"
         id="stop3157" /><stop
         style="stop-opacity:1;stop-color:#ffffff"
         offset="1"
         id="stop3159" /></linearGradient><linearGradient
       inkscape:collect="always"
       xlink:href="#radialGradient3007"
       id="linearGradient4016"
       gradientUnits="userSpaceOnUse"
       x1="27.351999"
       y1="78.096497"
       x2="180.778"
       y2="78.096497" /></defs><sodipodi:namedview
     pagecolor="#ffffff"
     bordercolor="#666666"
     borderopacity="1"
     objecttolerance="10"
     gridtolerance="10"
     guidetolerance="10"
     inkscape:pageopacity="0"
     inkscape:pageshadow="2"
     inkscape:window-width="1920"
     inkscape:window-height="1016"
     id="namedview2987"
     showgrid="false"
     inkscape:zoom="5.8980392"
     inkscape:cx="59.666049"
     inkscape:cy="5.6187125"
     inkscape:window-x="0"
     inkscape:window-y="27"
     inkscape:window-maximized="1"
     inkscape:current-layer="g2993"
     fit-margin-top="0"
     fit-margin-left="0"
     fit-margin-right="0"
     fit-margin-bottom="0" /><g
     id="g2993"
     inkscape:groupmode="layer"
     inkscape:label="DEV"
     transform="matrix(1.25,0,0,-1.25,-33.775,107.395)"><g
       id="g3015"
       transform="translate(81.415,79.8438)"
       style="fill:#ffffff;fill-opacity:1"><path
         d="m 0,0 0,-11.437 9.6,0 0,-1.323 -10.924,0 0,12.76 L 0,0 Z"
         style="fill:#ffffff;fill-opacity:1;fill-rule:nonzero;stroke:none"
         id="path3017"
         inkscape:connector-curvature="0" /></g><g
       id="g3019"
       transform="translate(104.3486,79.8438)"
       style="fill:#ffffff;fill-opacity:1"><path
         d="m 0,0 0,-1.322 -10.024,0 0,-4.195 9.71,0 0,-1.323 -9.71,0 0,-4.597 10.024,0 0,-1.323 -11.348,0 0,12.76 L 0,0 Z"
         style="fill:#ffffff;fill-opacity:1;fill-rule:nonzero;stroke:none"
         id="path3021"
         inkscape:connector-curvature="0" /></g><g
       id="g3023"
       transform="translate(112.9717,68.5176)"
       style="fill:#ffffff;fill-opacity:1"><path
         d="m 0,0 0.313,0 5.886,11.326 1.527,0 -6.622,-12.76 -1.875,0 -6.621,12.76 1.525,0 L 0,0 Z"
         style="fill:#ffffff;fill-opacity:1;fill-rule:nonzero;stroke:none"
         id="path3025"
         inkscape:connector-curvature="0" /></g><g
       id="g3027"
       transform="translate(121.541,71.4775)"
       style="fill:#ffffff;fill-opacity:1"><path
         d="M 0,0 7.689,0 3.845,7.43 0,0 Z m 4.876,8.366 6.618,-12.76 -1.543,0 -1.582,3.071 -9.084,0 -1.582,-3.071 -1.49,0 6.621,12.76 2.042,0 z"
         style="fill:#ffffff;fill-opacity:1;fill-rule:nonzero;stroke:none"
         id="path3029"
         inkscape:connector-curvature="0" /></g><g
       id="g3031"
       transform="translate(143.9404,78.5215)"
       style="fill:#ffffff;fill-opacity:1"><path
         d="m 0,0 -6.233,0 0,-11.438 -1.324,0 0,11.438 -6.237,0 0,1.322 L 0,1.322 0,0 Z"
         style="fill:#ffffff;fill-opacity:1;fill-rule:nonzero;stroke:none"
         id="path3033"
         inkscape:connector-curvature="0" /></g><path
       d="m 146.146,79.844 1.325,0 0,-12.76 -1.325,0 0,12.76 z"
       style="fill:#ffffff;fill-opacity:1;fill-rule:nonzero;stroke:none"
       id="path3035"
       inkscape:connector-curvature="0" /><g
       id="g3037"
       style="fill:#ffffff;fill-opacity:1"><g
         id="g3039"
         clip-path="url(#clipPath3041)"
         style="fill:#ffffff;fill-opacity:1"><g
           id="g3045"
           transform="translate(163.8584,74.0342)"
           style="fill:#ffffff;fill-opacity:1"><path
             d="m 0,0 c 0,0.685 -0.021,1.273 -0.065,1.766 -0.043,0.488 -0.127,0.904 -0.25,1.241 -0.122,0.336 -0.299,0.605 -0.531,0.808 -0.233,0.203 -0.54,0.357 -0.92,0.462 -0.381,0.103 -0.846,0.173 -1.399,0.21 -0.55,0.036 -1.207,0.056 -1.966,0.056 l -2.005,0 c -1.151,0 -2.068,-0.043 -2.75,-0.13 -0.68,-0.086 -1.197,-0.285 -1.553,-0.598 -0.357,-0.314 -0.585,-0.768 -0.69,-1.37 C -12.234,1.847 -12.286,1.031 -12.286,0 l 0,-1.104 c 0,-1.019 0.052,-1.824 0.157,-2.417 0.105,-0.595 0.333,-1.048 0.69,-1.362 0.356,-0.311 0.873,-0.511 1.553,-0.597 0.682,-0.086 1.599,-0.129 2.75,-0.129 l 2.005,0 c 1.151,0 2.066,0.043 2.738,0.129 0.675,0.086 1.191,0.286 1.547,0.597 0.355,0.314 0.585,0.767 0.69,1.362 C -0.053,-2.928 0,-2.123 0,-1.104 L 0,0 Z m -10.419,-6.723 c -0.84,0.155 -1.496,0.445 -1.968,0.874 -0.472,0.427 -0.792,1.023 -0.966,1.785 -0.172,0.757 -0.257,1.747 -0.257,2.96 l 0,1.104 c 0,1.215 0.085,2.203 0.257,2.97 0.174,0.764 0.494,1.367 0.966,1.802 0.472,0.437 1.128,0.728 1.968,0.881 0.84,0.154 1.934,0.232 3.283,0.232 l 2.023,0 c 1.337,0 2.421,-0.078 3.255,-0.232 C -1.025,5.5 -0.372,5.209 0.1,4.772 0.574,4.337 0.894,3.734 1.065,2.97 1.238,2.203 1.323,1.215 1.323,0 l 0,-1.104 c 0,-1.213 -0.085,-2.203 -0.258,-2.96 C 0.894,-4.826 0.574,-5.422 0.1,-5.849 -0.372,-6.278 -1.025,-6.568 -1.858,-6.723 -2.692,-6.875 -3.776,-6.95 -5.113,-6.95 l -2.023,0 c -1.349,0 -2.443,0.075 -3.283,0.227"
             style="fill:#ffffff;fill-opacity:1;fill-rule:nonzero;stroke:none"
             id="path3047"
             inkscape:connector-curvature="0" /></g></g></g><g
       id="g3071"
       style="fill:#ffffff;fill-opacity:1"><g
         id="g3073"
         clip-path="url(#clipPath3075)"
         style="fill:#ffffff;fill-opacity:1"><g
           id="g3079"
           transform="translate(169.9434,79.8438)"
           style="fill:#ffffff;fill-opacity:1"><path
             d="m 0,0 9.839,-11.437 0,11.437 1.323,0 0,-12.76 -1.913,0 -10.133,11.749 -0.716,0 0,-11.749 -1.322,0 0,12.76 L 0,0 Z"
             style="fill:#ffffff;fill-opacity:1;fill-rule:nonzero;stroke:none"
             id="path3081"
             inkscape:connector-curvature="0" /></g></g></g><g
       id="g3083"
       style="fill:#d1ffff;fill-opacity:1"><g
         id="g3085"
         style="fill:#d1ffff;fill-opacity:1"><g
           id="g3091"
           style="fill:#d1ffff;fill-opacity:1"><g
             id="g3093"
             style="fill:#d1ffff;fill-opacity:1"><path
               d="m 69.496,82.146 0.944,0 -6.21,-12.509 -21.136,0 0,-2.553 18.517,0 3.366,0 0.741,0 7.468,15.062 0.664,0 0.06,3.77 -4.414,-3.77 z m -5.605,-2.528 0.918,0 -2.35,-4.699 0,0.033 -0.068,0 -2.446,4.892 -2.752,0 3.558,-7.133 0.605,-1.215 2.157,0 0.605,1.215 3.443,6.907 0.684,0 0.061,3.771 -4.415,-3.771 z m -36.871,0.246 0,-12.78 9.288,0 c 0.967,0 1.78,0.081 2.436,0.245 l 0,0 c 0.655,0.167 1.18,0.449 1.572,0.847 l 0,0 c 0.393,0.397 0.671,0.938 0.837,1.612 l 0,0 c 0.165,0.671 0.25,1.516 0.25,2.537 l 0,0 0,2.463 c 0,0.944 -0.093,1.739 -0.278,2.391 l 0,0 c -0.182,0.65 -0.486,1.171 -0.91,1.571 l 0,0 c -0.423,0.399 -0.975,0.685 -1.655,0.857 l 0,0 c -0.68,0.172 -1.517,0.257 -2.511,0.257 l 0,0 -9.029,0 z m 3.071,-2.539 5.481,0 c 0.552,0 1.005,-0.047 1.36,-0.146 l 0,0 c 0.355,-0.098 0.641,-0.254 0.856,-0.469 l 0,0 c 0.215,-0.215 0.361,-0.498 0.441,-0.846 l 0,0 c 0.08,-0.35 0.12,-0.769 0.12,-1.26 l 0,0 0,-2.133 c 0,-0.552 -0.037,-1.008 -0.111,-1.369 l 0,0 c -0.073,-0.364 -0.215,-0.653 -0.423,-0.866 l 0,0 C 37.607,70.023 37.322,69.867 36.96,69.777 l 0,0 c -0.362,-0.093 -0.824,-0.14 -1.388,-0.14 l 0,0 -5.481,0 0,7.688 z m 13.003,2.519 0,-2.538 13.98,0 -1.267,2.538 -12.713,0 z m 0,-4.892 0,-2.554 16.427,0 -1.273,2.554 -15.154,0 z"
               style="fill:#d1ffff;stroke:none;fill-opacity:1"
               id="path3103"
               inkscape:connector-curvature="0" /></g></g></g></g><g
       id="g3105"
       style="fill:#ffffff;fill-opacity:1"><g
         id="g3107"
         clip-path="url(#clipPath3109)"
         style="fill:#ffffff;fill-opacity:1"><g
           id="g3113"
           transform="translate(77.4424,73.0039)"
           style="fill:#ffffff;fill-opacity:1"><path
             d="m 0,0 0,1.323 -5.925,0 L -6.582,0 0,0 Z m -9.517,-5.92 9.83,0 0,1.323 -9.173,0 -0.657,-1.323 z m 6.329,12.76 -0.658,-1.322 4.159,0 0,1.322 -3.501,0 z"
             style="fill:#ffffff;fill-opacity:1;fill-rule:nonzero;stroke:none"
             id="path3115"
             inkscape:connector-curvature="0" /></g></g></g><g
       style="fill:url(#linearGradient4016)"
       id="g3127" /></g></svg>