<?xml version="1.0" encoding="UTF-8" standalone="no"?>
<svg
   xmlns:dc="http://purl.org/dc/elements/1.1/"
   xmlns:cc="http://creativecommons.org/ns#"
   xmlns:rdf="http://www.w3.org/1999/02/22-rdf-syntax-ns#"
   xmlns:svg="http://www.w3.org/2000/svg"
   xmlns="http://www.w3.org/2000/svg"
   xmlns:sodipodi="http://sodipodi.sourceforge.net/DTD/sodipodi-0.dtd"
   xmlns:inkscape="http://www.inkscape.org/namespaces/inkscape"
   width="2955.5083"
   height="2955.5085"
   viewBox="0 0 302.64405 302.64407"
   preserveAspectRatio="xMinYMin meet"
   id="svg5981"
   version="1.1"
   inkscape:version="0.91 r13725"
   sodipodi:docname="javascript.svg">
  <metadata
     id="metadata5991">
    <rdf:RDF>
      <cc:Work
         rdf:about="">
        <dc:format>image/svg+xml</dc:format>
        <dc:type
           rdf:resource="http://purl.org/dc/dcmitype/StillImage" />
        <dc:title></dc:title>
      </cc:Work>
    </rdf:RDF>
  </metadata>
  <defs
     id="defs5989" />
  <sodipodi:namedview
     pagecolor="#ffffff"
     bordercolor="#666666"
     borderopacity="1"
     objecttolerance="10"
     gridtolerance="10"
     guidetolerance="10"
     inkscape:pageopacity="0"
     inkscape:pageshadow="2"
     inkscape:window-width="1348"
     inkscape:window-height="772"
     id="namedview5987"
     showgrid="false"
     fit-margin-top="0"
     fit-margin-left="0"
     fit-margin-right="0"
     fit-margin-bottom="0"
     inkscape:zoom="0.0944"
     inkscape:cx="1477.7542"
     inkscape:cy="1477.7543"
     inkscape:window-x="0"
     inkscape:window-y="27"
     inkscape:window-maximized="0"
     inkscape:current-layer="svg5981" />
  <path
     id="path6533"
     d="m 0,9.9999999e-7 302.64406,0 L 302.64406,302.64408 0,302.64408 0,0 Z"
     inkscape:connector-curvature="0"
     style="fill:#ffffff" />
  <path
     d="m 23.322032,23.322037 255.999998,0 0,256.000003 -255.999998,0 0,-256.000003 z"
     id="path5983"
     inkscape:connector-curvature="0"
     style="fill:#f7df1e" />
  <path
     d="m 90.634032,237.25404 19.589998,-11.856 c 3.78,6.701 7.218,12.371 15.465,12.371 7.905,0 12.89,-3.092 12.89,-15.12 l 0,-81.798 24.057,0 0,82.138 c 0,24.917 -14.606,36.259 -35.916,36.259 -19.245,0 -30.415998,-9.967 -36.086998,-21.996 m 85.069998,-2.576 19.588,-11.341 c 5.157,8.421 11.859,14.607 23.715,14.607 9.969,0 16.325,-4.984 16.325,-11.858 0,-8.248 -6.53,-11.17 -17.528,-15.98 l -6.013,-2.58 c -17.357,-7.387 -28.87,-16.667 -28.87,-36.257 0,-18.044 13.747,-31.792 35.228,-31.792 15.294,0 26.292,5.328 34.196,19.247 l -18.732,12.03 c -4.125,-7.389 -8.591,-10.31 -15.465,-10.31 -7.046,0 -11.514,4.468 -11.514,10.31 0,7.217 4.468,10.14 14.778,14.608 l 6.014,2.577 c 20.45,8.765 31.963,17.7 31.963,37.804 0,21.654 -17.012,33.51 -39.867,33.51 -22.339,0 -36.774,-10.654 -43.819,-24.574"
     id="path5985"
     inkscape:connector-curvature="0" />
</svg>
