<?xml version="1.0" encoding="UTF-8" standalone="no"?>
<!-- Created with Inkscape (http://www.inkscape.org/) -->

<svg
   xmlns:dc="http://purl.org/dc/elements/1.1/"
   xmlns:cc="http://creativecommons.org/ns#"
   xmlns:rdf="http://www.w3.org/1999/02/22-rdf-syntax-ns#"
   xmlns:svg="http://www.w3.org/2000/svg"
   xmlns="http://www.w3.org/2000/svg"
   xmlns:xlink="http://www.w3.org/1999/xlink"
   xmlns:sodipodi="http://sodipodi.sourceforge.net/DTD/sodipodi-0.dtd"
   xmlns:inkscape="http://www.inkscape.org/namespaces/inkscape"
   width="562.32892mm"
   height="310.32944mm"
   viewBox="0 0 1992.5042 1099.5926"
   id="svg2"
   version="1.1"
   inkscape:version="0.91 r13725"
   sodipodi:docname="jeff.svg">
  <defs
     id="defs4">
    <linearGradient
       x1="0"
       y1="0"
       x2="1"
       y2="0"
       gradientUnits="userSpaceOnUse"
       gradientTransform="matrix(0,18.831543,18.831543,0,50.464844,67.083984)"
       spreadMethod="pad"
       id="linearGradient3095"
       xlink:href="#linearGradient3061">
      <stop
         style="stop-color:#7ad5eb;stop-opacity:1;"
         offset="0"
         id="stop3097" />
      <stop
         style="stop-color:#eefdfe;stop-opacity:1;"
         offset="0.80368"
         id="stop3099" />
      <stop
         style="stop-color:#acdbf9;stop-opacity:1;"
         offset="1"
         id="stop3101" />
    </linearGradient>
    <linearGradient
       x1="0"
       y1="0"
       x2="1"
       y2="0"
       gradientUnits="userSpaceOnUse"
       gradientTransform="matrix(0,5.5371094,5.5371094,0,157.71484,70.732422)"
       spreadMethod="pad"
       id="linearGradient3061">
      <stop
         style="stop-color:#b3eef9;stop-opacity:1;"
         offset="0"
         id="stop3063" />
      <stop
         style="stop-color:#64eaf2;stop-opacity:1;"
         offset="0.80368"
         id="stop3065" />
      <stop
         style="stop-color:#dcf7fc;stop-opacity:1;"
         offset="1"
         id="stop3067" />
    </linearGradient>
  </defs>
  <sodipodi:namedview
     id="base"
     pagecolor="#ffffff"
     bordercolor="#666666"
     borderopacity="1.0"
     inkscape:pageopacity="0.0"
     inkscape:pageshadow="2"
     inkscape:zoom="0.41036631"
     inkscape:cx="905.29626"
     inkscape:cy="816.62099"
     inkscape:document-units="px"
     inkscape:current-layer="layer1"
     showgrid="false"
     fit-margin-top="0"
     fit-margin-left="0"
     fit-margin-right="0"
     fit-margin-bottom="0"
     inkscape:window-width="1920"
     inkscape:window-height="1051"
     inkscape:window-x="0"
     inkscape:window-y="0"
     inkscape:window-maximized="1" />
  <metadata
     id="metadata7">
    <rdf:RDF>
      <cc:Work
         rdf:about="">
        <dc:format>image/svg+xml</dc:format>
        <dc:type
           rdf:resource="http://purl.org/dc/dcmitype/StillImage" />
        <dc:title></dc:title>
      </cc:Work>
    </rdf:RDF>
  </metadata>
  <g
     inkscape:label="Layer 1"
     inkscape:groupmode="layer"
     id="layer1"
     transform="translate(216.72963,12.823688)">
    <path
       style="color:#000000;clip-rule:nonzero;display:inline;overflow:visible;visibility:visible;opacity:1;isolation:auto;mix-blend-mode:normal;color-interpolation:sRGB;color-interpolation-filters:linearRGB;solid-color:#000000;solid-opacity:1;fill:#085998;fill-opacity:1;fill-rule:evenodd;stroke:none;stroke-width:8.69999981;stroke-linecap:round;stroke-linejoin:round;stroke-miterlimit:4;stroke-dasharray:none;stroke-dashoffset:0;stroke-opacity:1;color-rendering:auto;image-rendering:auto;shape-rendering:auto;text-rendering:auto;enable-background:accumulate"
       d="m 1775.7745,-11.083178 -443.3296,378.648378 94.8121,0 -355.5762,716.247 276.2455,0 355.1329,-716.247 66.6864,0 6.0289,-378.648378 z m -562.8508,253.800828 -443.42506,378.75069 92.20007,0 -231.21968,462.34386 277.15261,0 230.46946,-462.34386 68.6982,0 6.1244,-378.75069 z m -625.4586,784.64515 0,54.6967 c 0,0.9741 0.63139,1.7527 1.41857,1.7527 l 26.80954,0 -28.22811,-56.4494 z"
       id="rect4775"
       inkscape:connector-curvature="0" />
    <g
       id="g3091"
       transform="matrix(28.763191,0,0,-28.763191,-2256.3374,2162.1113)">
      <g
         id="g3093" />
    </g>
    <path
       inkscape:connector-curvature="0"
       id="path4298"
       d="m -216.72719,942.08144 0,-144.6875 13.4362,0.0679 c 7.39,0.0374 14.7443,0.51057 16.343,1.05162 2.4838,0.84065 4.0954,-0.20501 11.0785,-7.18806 l 8.1718,-8.17181 -0.8867,-13.57389 c -0.9895,-15.14696 0.282,-21.66126 6.4345,-32.96547 3.806,-6.99287 14.5294,-17.45934 21.5228,-21.0072 2.4873,-1.26185 10.8771,-4.89164 18.644,-8.06618 12.3183,-5.03484 15.2799,-5.7719 23.192102,-5.7719 12.2182,0 19.3295,3.56296 27.4086,13.73241 3.2847,4.13468 6.6429,7.51759 7.4624,7.51759 0.8196,0 5.8919,-1.52686 11.2717,-3.39303 9.4354,-3.27296 10.2102,-3.85529 21.8958,-16.45682 17.0954,-18.43549 30.27280001,-33.99951 30.27280001,-35.75588 0,-0.82332 -0.83700001,-4.25822 -1.86000001,-7.63311 -1.0229,-3.37489 -2.2157,-9.55504 -2.6506,-13.73365 -0.744,-7.14982 -0.5735,-7.84955 2.894,-11.875 5.0115,-5.81781 10.9309,-14.6729 13.3232,-19.93067 2.5157,-5.52893 17.248794,-26.72428 22.571494,-32.47184 2.2284,-2.40625 6.6924,-8.15305 9.92,-12.77066 6.1223,-8.75874 26.2381,-26.73797 34.8058,-31.1089 2.5664,-1.30925 11.856,-4.70088 20.6436,-7.53694 8.787604,-2.83605 19.352504,-6.8533 23.477504,-8.9272 4.125,-2.0739 13.0949,-5.65748 19.9331,-7.96351 10.85,-3.65892 14.0396,-4.19279 25.0499,-4.19279 6.9392,0 15.688,-0.78645 19.4418,-1.74768 7.0553,-1.80658 39.6265,-1.62468 41.3886,0.23114 1.6007,1.68581 1.5415,7.14954 -0.1311,12.09283 -2.1265,6.2848 -1.9109,20.58364 0.44,29.1818 2.0956,7.66429 6.836,14.44513 11.9458,17.08748 3.0317,1.56779 3.68,2.82732 4.342,8.43619 1.8907,16.02065 3.6193,27.04322 5.1506,32.84324 3.5426,13.41836 3.5704,22.82311 0.1052,35.625 -7.945,29.35285 -14.2016,84.27553 -12.8868,113.125 0.4073,8.9375 1.8464,21.875 3.1979,28.75 1.3516,6.875 3.406,17.5625 4.5655,23.75 2.8597,15.26094 10.2416,41.5421 15.9751,56.875 4.8797,13.04984 5.6298,14.71179 7.0303,15.57735 0.7299,0.4511 1.3271,1.72691 1.3271,2.83514 0,2.08106 2.9488,8.61237 14.5436,32.21251 7.1779,14.61 10.0589,19.32604 19.5189,31.95115 3.2656,4.35822 5.9375,8.55382 5.9375,9.32354 0,0.76971 1.3919,2.60976 3.0932,4.089 1.7013,1.47923 3.9226,4.67442 4.9362,7.10042 1.0137,2.42599 2.3577,4.41089 2.9868,4.41089 0.6291,0 2.7198,2.27421 4.6461,5.05379 2.9505,4.25765 4.0111,4.94217 6.7325,4.34525 3.129,-0.68634 3.233,-0.51273 3.3208,5.54014 0.051,3.52481 0.89,7.21581 1.9244,8.46721 1.0086,1.2202 2.819,4.18726 4.0232,6.59356 3.2401,6.4747 4.9817,9.2962 7.3902,11.9722 12.0185,13.3539 23.4466,27.5377 23.4466,29.1004 0,2.1087 7.0588,6.4274 10.5055,6.4274 3.8363,0 4.3111,1.993 0.7445,3.125 -1.375,0.4364 -2.4979,1.4587 -2.4953,2.2717 0.01,2.1025 4.969,10.0375 7.0216,11.2278 0.948,0.5498 1.7237,2.0669 1.7237,3.3714 0,2.8264 5.6901,13.8743 7.8541,15.2493 0.8365,0.5315 -136.9947,0.975 -306.291604,0.9856 l -307.812496,0.019 0,-144.68735 z m 845.1176,138.12486 c 1.4203,-3.6094 3.6393,-8.5313 4.9311,-10.9375 3.0057,-5.5987 10.025,-24.1303 16.098,-42.4999 7.2377,-21.8927 9.6467,-32.84904 10.678,-48.56579 0.3768,-5.74245 1.0057,-10.95962 1.3976,-11.59371 0.8086,-1.30826 2.1844,-14.17334 1.9213,-17.96546 -0.095,-1.375 -0.1469,-5.03676 -0.1143,-8.13725 0.1055,-10.04813 -5.3436,-12.84269 -9.4726,-4.85806 -2.7887,5.39269 -8.8921,11.12031 -11.85,11.12031 -2.0197,0 -2.4507,-0.55356 -1.8658,-2.3964 0.6167,-1.94296 0.2765,-2.26984 -1.7974,-1.72747 -1.4069,0.36791 -3.4226,-0.0486 -4.4794,-0.92562 -1.4552,-1.20777 -2.2723,-1.24356 -3.3683,-0.14754 -0.7959,0.79587 -2.4276,1.44703 -3.6262,1.44703 -1.1985,0 -2.9141,0.98438 -3.8125,2.1875 -0.8983,1.20312 -2.4771,2.1875 -3.5083,2.1875 -1.0313,0 -1.9324,1.125 -2.0025,2.5 -0.2408,4.72464 -0.5047,5.24618 -3.2822,6.48552 -1.7063,0.76137 -2.7955,2.36614 -2.8125,4.14388 -0.015,1.59572 -0.731,3.13816 -1.5903,3.42762 -1.0573,0.35612 -1.5625,-0.92216 -1.5625,-3.95286 -10e-5,-4.11507 -0.2964,-4.47916 -3.6459,-4.47916 -2.0052,0 -3.9311,-0.70312 -4.2798,-1.5625 -1.0108,-2.49114 -3.2797,1.5612 -3.3244,5.9375 -0.047,4.57975 -1.0873,6.29261 -4.4617,7.3441 -1.4227,0.44333 -3.8302,2.48789 -5.3499,4.54347 -1.5198,2.05559 -3.5212,3.73743 -4.4477,3.73743 -0.9265,0 -2.3548,0.80759 -3.174,1.79465 -0.8192,0.98706 -3.2787,2.16728 -5.4655,2.6227 -5.5811,1.16229 -9.6012,3.97851 -9.6012,6.72595 0,1.50437 -1.2209,2.64213 -3.4305,3.19669 -4.2853,1.07555 -6.5357,2.90856 -7.8658,6.40681 -0.7624,2.0052 -2.2957,2.84395 -5.8073,3.17645 -9.1336,0.86471 -12.1352,-0.016 -14.5807,-4.27665 -2.1723,-3.78492 -2.3785,-3.86937 -4.0078,-1.64117 -0.9447,1.29197 -1.9034,2.90617 -2.1304,3.58707 -0.2403,0.7208 -2.0612,0.3854 -4.3595,-0.8031 -3.2299,-1.6702 -4.5418,-1.7699 -7.2219,-0.5488 -2.5228,1.1495 -3.4854,1.152 -4.1907,0.011 -0.9313,-1.50672 -7.8096,1.2458 -12.1828,4.87516 -1.5597,1.2944 -2.1194,1.2561 -3.0297,-0.2069 -0.9368,-1.50561 -1.5446,-1.52921 -3.7745,-0.1468 -2.2519,1.3962 -2.9938,1.3439 -4.8573,-0.34251 -3.3745,-3.05385 -6.6234,-1.198 -5.6513,3.22811 0.8241,3.7519 -0.3718,4.6295 -2.8845,2.1168 -1.133,-1.133 -2.1324,-1.1254 -4.3125,0.033 -1.5608,0.8291 -4.8065,1.5244 -7.2128,1.5452 -12.23,0.1058 -19.2388,-0.2622 -20.4884,-1.0756 -0.7626,-0.4964 -3.8956,-1.465 -6.9623,-2.1525 -4.2604,-0.9552 -6.2706,-2.282 -8.5218,-5.62496 -1.6203,-2.4062 -4.0332,-4.77873 -5.3618,-5.2722 -1.8996,-0.70603 -2.4157,-2.10639 -2.4157,-6.55515 0,-4.85461 0.3375,-5.60594 2.3781,-5.29452 1.308,0.1996 3.2521,1.08825 4.3203,1.97476 2.1707,1.80152 4.5516,0.90288 4.5516,-1.71791 0,-0.94435 1.0397,-2.04696 2.3103,-2.45025 1.2707,-0.4033 2.9461,-2.1287 3.7232,-3.83423 0.7771,-1.70554 2.1281,-3.11808 3.0022,-3.13899 0.9189,-0.022 0.6666,-0.57545 -0.5982,-1.31212 -1.2031,-0.70075 -2.1875,-2.42381 -2.1875,-3.82901 0,-1.50366 -1.0286,-2.82391 -2.5,-3.20867 -2.7398,-0.71649 -3.2473,-2.25278 -1.1685,-3.53752 0.9096,-0.56216 0.8106,-1.4766 -0.3125,-2.88627 -2.9075,-3.64929 -4.769,-7.59082 -4.769,-10.09766 0,-2.8279 1.9615,-4.47343 3.1124,-2.61113 1.226,1.9837 4.3876,1.49042 4.3876,-0.68457 0,-1.44981 1.0402,-1.85355 4.0254,-1.5625 3.0642,0.29875 4.1335,-0.14421 4.4782,-1.85509 0.6702,-3.32634 -2.2192,-6.15709 -5.4557,-5.3448 -2.0465,0.51366 -2.9312,0.0485 -3.4132,-1.79464 -0.4986,-1.9068 -1.7092,-2.48801 -5.1819,-2.48801 -2.8746,0 -4.7943,0.68549 -5.2507,1.875 -0.3958,1.03125 -1.2219,1.875 -1.8358,1.875 -1.6342,0 -1.3648,-3.45882 0.313,-4.01809 2.0627,-0.68758 -0.9613,-5.98191 -3.4168,-5.98191 -1.0448,0 -4.3919,-1.13536 -7.438,-2.52301 -4.1368,-1.88455 -6.1717,-3.83385 -8.041,-7.70297 -3.0363,-6.2844 -2.0647,-7.91979 5.2976,-8.91656 3.6218,-0.49036 6.2002,-0.12586 8.1634,1.15405 1.6111,1.05034 3.9672,1.52239 5.3725,1.07636 1.3766,-0.43692 3.1791,-0.26167 4.0055,0.38948 0.8264,0.65114 4.8775,1.51383 9.0025,1.91708 6.0917,0.5955 7.9896,1.34563 10.1072,3.99493 2.2013,2.75389 3.5637,3.24615 8.75,3.16153 3.3786,-0.0551 8.5822,0.25586 11.5637,0.69107 6.9624,1.01632 9.3624,-1.01187 4.4045,-3.72211 -3.5138,-1.92079 -3.5269,-1.96827 -0.7629,-2.75794 1.5469,-0.44192 2.8125,-1.6072 2.8125,-2.58952 0,-2.63913 -5.7543,-7.92239 -8.6287,-7.92239 -1.3709,0 -4.0098,-1.40625 -5.8644,-3.125 -1.8546,-1.71875 -3.912,-3.125 -4.572,-3.125 -0.66,0 -2.2897,-1.38526 -3.6215,-3.07836 -2.6667,-3.39011 -9.0432,-8.24349 -11.421,-8.69285 -2.8742,-0.5432 -11.4296,-4.57752 -13.3466,-6.2936 -1.0564,-0.94572 -5.577,-3.19086 -10.0458,-4.98923 -6.7645,-2.72225 -8.8575,-4.32057 -12.5,-9.54552 -2.6607,-3.81667 -6.5791,-7.45312 -10,-9.2804 -3.0937,-1.65254 -10.4062,-7.30533 -16.25,-12.56174 -5.8437,-5.25641 -12.4531,-10.35244 -14.6875,-11.32449 -2.6013,-1.13167 -4.0625,-2.64899 -4.0625,-4.21849 0,-1.44653 -1.502,-3.22783 -3.6647,-4.34624 -2.1917,-1.13334 -4.3024,-3.65853 -5.2511,-6.2821 -1.5731,-4.35025 -3.9143,-5.63668 -5.5225,-3.03448 -0.5274,0.8533 -2.1694,0.0749 -4.4488,-2.10886 -4.0176,-3.84914 -4.5354,-6.10315 -1.7589,-7.65698 1.5934,-0.89168 1.4699,-1.82299 -0.8786,-6.62461 -1.503,-3.07288 -3.181,-5.77455 -3.729,-6.00371 -0.548,-0.22918 -0.9964,-1.26184 -0.9964,-2.29481 0,-1.22493 1.4895,-0.42788 4.2825,2.29166 6.4346,6.26535 16.9326,14.19092 22.8963,17.28574 2.917,1.5138 6.5733,4.25395 8.125,6.08923 1.5517,1.83529 5.0712,5.00348 7.8212,7.04043 2.75,2.03695 12.3929,11.16811 21.4287,20.29147 9.0357,9.12336 17.3779,16.58794 18.5381,16.58794 1.1603,0 5.0756,1.96875 8.7008,4.375 3.6251,2.40625 6.9266,4.375 7.3366,4.375 0.41,0 3.1643,1.61515 6.1207,3.58923 2.9563,1.97407 7.0626,3.89687 9.1251,4.27288 2.0625,0.376 6.2813,1.33679 9.375,2.13506 5.2531,1.35544 11.908,1.5145 48.75,1.16518 7.9063,-0.075 22.3226,-0.0446 32.0362,0.0676 l 17.6613,0.20388 8.87,-4.4669 c 4.8786,-2.45685 9.8739,-4.46695 11.1006,-4.46695 1.2268,0 2.9331,-1.125 3.7918,-2.5 0.8587,-1.375 2.3238,-2.5 3.2557,-2.5 0.9319,0 3.2013,-2.17441 5.043,-4.83203 1.8418,-2.65761 5.2933,-5.87927 7.67,-7.15925 2.3768,-1.27997 4.3214,-3.2835 4.3214,-4.45224 0,-2.58012 5.723,-7.30648 8.8472,-7.30648 1.3271,0 5.156,-3.74089 9.2756,-9.0625 3.8585,-4.98437 8.6719,-10.90956 10.6964,-13.16708 2.0244,-2.25751 3.6808,-4.51501 3.6808,-5.01664 0,-1.34802 21.115,-22.75378 22.4447,-22.75378 0.6253,0 1.5351,-1.26562 2.0219,-2.8125 1.1842,-3.76285 13.7577,-20.61132 18.9136,-25.34425 2.2659,-2.07996 4.1198,-4.36535 4.1198,-5.07864 0,-0.71329 1.642,-2.87001 3.6489,-4.79272 2.0069,-1.92271 3.9581,-4.7279 4.336,-6.23378 0.3822,-1.52266 2.659,-3.67821 5.1296,-4.85633 2.4433,-1.16513 4.9401,-3.38705 5.5484,-4.9376 0.6084,-1.55054 3.6894,-5.81823 6.8466,-9.48374 3.1573,-3.66551 5.7405,-7.22085 5.7405,-7.90075 0,-0.67989 2.25,-3.90454 5,-7.16588 2.75,-3.26133 5,-7.15912 5,-8.66176 0,-1.50262 0.5918,-2.73205 1.3151,-2.73205 0.7232,0 1.8779,-1.61479 2.5659,-3.58841 0.688,-1.97363 2.3897,-4.09653 3.7814,-4.71755 2.7646,-1.23359 7.6323,-13.4972 6.6546,-16.76533 -0.3267,-1.09172 1.0676,-3.52697 3.1754,-5.54636 2.0667,-1.98004 3.7576,-4.48926 3.7576,-5.57605 0,-1.08677 1.4063,-4.04545 3.125,-6.57481 1.7188,-2.52938 3.125,-5.41226 3.125,-6.40644 0,-0.99416 0.7872,-2.10962 1.7492,-2.4788 0.9621,-0.36917 2.4301,-2.81997 3.2623,-5.44624 0.8322,-2.62626 2.5743,-6.63193 3.8714,-8.90152 1.2971,-2.26958 3.5663,-9.20891 5.0426,-15.42075 1.4763,-6.21183 3.4379,-11.58343 4.359,-11.93689 0.9211,-0.35345 8.2932,2.69513 16.3826,6.77463 8.0894,4.07951 21.4579,10.82997 29.7079,15.00103 20.0239,10.12377 67.543,38.29863 79.9523,47.4051 15.04611,11.04142 39.86254,34.4585 46.53167,43.90782 3.25897,4.61756 8.79884,12.05182 12.3108,16.52057 12.62207,16.06076 26.69406,37.04915 31.00902,46.25 7.44869,15.88291 17.656,45.21948 19.0306,54.6955 1.1031,7.60424 2.3322,9.95239 8.0108,15.3045 2.553,2.40625 7.351,8.3125 10.6623,13.125 3.3112,4.8125 9.1642,12.23051 13.0065,16.48448 6.8717,7.60781 10.9265,15.4413 13.8389,26.73475 1.6421,6.3681 11.6586,20.48411 17.124,24.13265 3.2684,2.18185 6.2778,5.63803 17.993,20.66477 5.6825,7.28876 10.252,15.89453 14.3278,26.98335 1.7688,4.8125 4.5441,11.84375 6.1673,15.625 11.0781,25.80626 16.8358,42.74366 21.2461,62.49996 1.151,5.1562 2.9484,12.7499 3.9943,16.8749 1.0457,4.125 2.1961,8.7656 2.5562,10.3125 l 0.6549,2.8125 -253.87749,0 -253.8775,0 2.5824,-6.5625 z M 448.35371,976.35109 c -1.0817,-1.08166 -1.7273,-0.97592 -2.6151,0.4283 -1.9166,3.03159 -1.3945,3.92245 1.4171,2.41772 1.9839,-1.06172 2.2796,-1.76436 1.198,-2.84602 z m 13.6678,-8.40593 c 0,-0.64692 -0.8437,-1.17622 -1.875,-1.17622 -1.933,0 -2.4833,1.47495 -1.0756,2.88269 0.9986,0.99866 2.9506,-0.13024 2.9506,-1.70647 z m -15.7812,-5.92341 c 0.9883,-1.59911 -1.3043,-4.40648 -2.829,-3.46419 -2.0068,1.24025 -1.7097,4.46138 0.4115,4.46138 0.9906,0 2.0785,-0.44874 2.4175,-0.99719 z m 195.7812,-26.50281 c 0,-0.6875 -0.5625,-1.25 -1.25,-1.25 -0.6875,0 -1.25,0.5625 -1.25,1.25 0,0.6875 0.5625,1.25 1.25,1.25 0.6875,0 1.25,-0.5625 1.25,-1.25 z m -6.25,16.47682 c 0,-1.51068 2.3715,-3.27198 3.2384,-2.40512 0.3146,0.31463 -0.2853,1.28358 -1.3332,2.15323 -1.1879,0.98593 -1.9052,1.08077 -1.9052,0.25189 z m -206.9088,-11.53157 c -0.8671,-1.40299 1.5052,-4.94525 3.3119,-4.94525 0.6033,0 1.0969,1.40625 1.0969,3.125 0,3.17316 -2.8464,4.34834 -4.4088,1.82025 z m 30.4088,-27.69525 c 1.1667,-1.16666 1.8334,-1.16666 3,0 1.1667,1.16666 0.8334,1.5 -1.5,1.5 -2.3333,0 -2.6666,-0.33334 -1.5,-1.5 z m -57.25,-2.94878 c 0,-1.07182 0.5625,-1.60112 1.25,-1.17622 0.6875,0.4249 1.25,1.30185 1.25,1.94878 0,0.64692 -0.5625,1.17622 -1.25,1.17622 -0.6875,0 -1.25,-0.87695 -1.25,-1.94878 z m -13.75,-5 c 0,-1.07182 0.5625,-1.60112 1.25,-1.17622 0.6875,0.4249 1.25,1.30185 1.25,1.94878 0,0.64692 -0.5625,1.17622 -1.25,1.17622 -0.6875,0 -1.25,-0.87695 -1.25,-1.94878 z m 15,-0.34288 c 0,-1.76125 1.408,-2.56925 3.2472,-1.86348 2.6087,1.00105 2.119,2.90514 -0.7472,2.90514 -1.375,0 -2.5,-0.46875 -2.5,-1.04166 z m 135.625,-203.54666 c -2.0625,-0.31652 -7.0116,-1.74892 -10.9979,-3.18312 -10.3696,-3.7307 -7.2664,-5.62046 3.8117,-2.32126 9.4132,2.8034 10.039,2.7706 45.9362,-2.4077 5.5,-0.79339 14.2794,-1.899 19.5097,-2.45691 5.2303,-0.55791 10.6777,-1.6395 12.1053,-2.40354 1.4276,-0.76404 4.742,-1.4025 7.3654,-1.41882 2.6233,-0.0164 8.0085,-1.36159 11.9671,-2.9895 l 7.1974,-2.95983 3.0423,5.10164 c 1.6732,2.80591 2.7606,5.55744 2.4163,6.11451 -0.3443,0.55706 -3.5741,1.01285 -7.1772,1.01285 -3.6032,0 -7.0856,0.51818 -7.7388,1.15149 -0.6531,0.63332 -4.5625,2.26555 -8.6875,3.62719 -6.3262,2.08822 -10.8258,2.46696 -28.75,2.41988 -11.6875,-0.0308 -26.875,0.24668 -33.75,0.61639 -6.875,0.36973 -14.1875,0.41324 -16.25,0.0968 z m -27.5,-6.66168 c -0.4249,-0.6875 0.4189,-1.25 1.875,-1.25 1.4562,0 2.2999,0.5625 1.875,1.25 -0.4249,0.6875 -1.2686,1.25 -1.875,1.25 -0.6063,0 -1.4501,-0.5625 -1.875,-1.25 z m -8.4375,-2.07785 c 0.8594,-0.34676 2.2657,-0.34676 3.125,0 0.8594,0.34676 0.1563,0.63049 -1.5625,0.63049 -1.7187,0 -2.4218,-0.28373 -1.5625,-0.63049 z m -17.5,-2.5 c 0.8594,-0.34676 2.2657,-0.34676 3.125,0 0.8594,0.34676 0.1563,0.63049 -1.5625,0.63049 -1.7187,0 -2.4218,-0.28373 -1.5625,-0.63049 z m -72.1875,-1.56873 c 0,-1.51423 14.7804,-11.35342 17.0551,-11.35342 0.9737,0 5.1119,1.40649 9.1962,3.12552 5.3094,2.23472 12.0873,3.60817 23.7812,4.81892 9.5345,0.98719 16.9783,2.3563 17.849,3.28292 2.6125,2.78042 -27.2105,0.74333 -35.1955,-2.40405 -8.7078,-3.4323 -16.0431,-3.26832 -24.6809,0.55169 -8.0014,3.53861 -8.0051,3.53953 -8.0051,1.97842 z m 155,-60.46563 c -1.7187,-0.86645 -3.3133,-2.89204 -3.5434,-4.5013 -0.2301,-1.60927 -1.4957,-3.20767 -2.8125,-3.552 -1.3167,-0.34434 -2.3941,-1.0088 -2.3941,-1.47659 0,-1.22611 9.2764,-10.1079 10.557,-10.1079 0.592,0 4.0503,-2.8125 7.6849,-6.25 3.6347,-3.4375 7.2167,-6.25 7.9601,-6.25 0.7434,0 3.5079,-1.42694 6.1433,-3.17097 4.4318,-2.93282 5.2513,-3.06844 10.9107,-1.80576 8.1245,1.81268 11.744,4.31121 11.744,8.10673 0,2.23471 0.852,3.28621 3.125,3.8567 7.4639,1.87331 0.6308,9.126 -13.75,14.5942 -3.4375,1.3071 -8.1228,3.79881 -10.4117,5.53714 -4.0461,3.07276 -14.5344,6.60596 -19.5883,6.5987 -1.375,-0.002 -3.9062,-0.7125 -5.625,-1.57895 z m -36.25,-25.59662 c -2.691,-1.14405 -9.8961,-2.05485 -18.719,-2.3663 -14.4488,-0.51003 -20.8232,-2.3923 -19.6998,-5.81703 0.7291,-2.22249 14.4413,-4.74608 21.3954,-3.93759 3.3558,0.39016 9.3815,2.36511 13.3904,4.3888 10.3494,5.22437 13.4984,11.92622 3.633,7.73212 z m -43.75,-1.54117 c 0,-0.6875 0.5957,-1.25 1.3238,-1.25 0.7281,0 0.9761,0.5625 0.5512,1.25 -0.4249,0.6875 -1.0206,1.25 -1.3237,1.25 -0.3032,0 -0.5513,-0.5625 -0.5513,-1.25 z m 153.75,-70.52984 c -25.4455,-5.42565 -31.5533,-11.84995 -46.8217,-49.24816 -7.5108,-18.39691 -11.1178,-30.83686 -10.2293,-35.27932 0.4826,-2.41308 0.2464,-3.56713 -0.6896,-3.36902 -0.783,0.16574 -1.8325,-1.5789 -2.3323,-3.87697 -0.4998,-2.29808 -1.5316,-4.8012 -2.2929,-5.5625 -2.0599,-2.05988 -1.6803,-3.38419 0.97,-3.38419 1.303,0 2.6462,1.11635 3.008,2.5 1.1569,4.42389 2.9712,2.66469 2.9712,-2.88095 0,-4.54816 -0.4998,-5.62351 -3.2292,-6.94826 -6.1575,-2.98863 -57.7585,-6.70495 -59.2644,-4.26825 -0.4272,0.69122 -1.3491,6.30904 -2.0486,12.48402 -2.0386,17.99602 -7.7493,33.26484 -19.7714,52.86344 -20.8204,33.94165 -31.3772,40.09388 -68.7086,40.04158 -27.9623,-0.0391 -40.5027,-1.38775 -68.4362,-7.35949 -15.4113,-3.29471 -56.9502,-19.91951 -50.2627,-20.11626 1.2305,-0.0362 4.3243,0.98505 6.875,2.26946 4.6332,2.33302 35.1859,12.59355 44.6377,14.99074 23.2302,5.89163 41.9832,8.16528 59.5425,7.21906 7.1266,-0.38404 17.4354,-0.76444 22.9084,-0.84533 9.2436,-0.13661 10.5669,-0.50687 18.6196,-5.20992 4.7678,-2.78456 11.4315,-7.9433 14.8083,-11.46384 12.2789,-12.802 26.2657,-40.21962 19.1184,-37.47696 -5.189,1.99123 -11.8722,-3.93577 -11.8722,-10.52898 0,-3.07028 8.9748,-12.77006 11.8156,-12.77006 1.2098,0 3.348,-1.45995 4.7516,-3.24434 1.9986,-2.54078 3.3007,-3.0946 6.0044,-2.55386 4.0051,0.80103 4.3721,0.17998 5.5073,-9.31834 1.0531,-8.81068 -2.6874,-16.74326 -9.7351,-20.64551 -4.2994,-2.38055 -4.5109,-2.71805 -2.0984,-3.34893 1.4756,-0.38587 7.2834,-0.15773 12.9062,0.50697 5.6229,0.66471 14.1609,1.62888 18.9734,2.14261 4.8125,0.51374 10.086,1.67263 11.7188,2.57533 2.1433,1.18496 3.7072,1.28539 5.625,0.36123 1.4609,-0.70401 6.6124,-1.59778 11.4478,-1.98613 11.2887,-0.90668 20.0938,-3.93128 22.8117,-7.83594 6.2015,-8.9094 6.785,-9.2911 14.6473,-9.58086 4.1247,-0.15203 8.3432,-0.81404 9.3744,-1.47115 5.2653,-3.35505 9.9999,-5.95107 15.9375,-8.73863 3.6094,-1.69451 6.5625,-3.52771 6.5625,-4.07379 0,-0.54608 2.6719,-1.74889 5.9375,-2.67288 3.2657,-0.92402 7.155,-2.43448 8.643,-3.35658 1.7764,-1.10081 8.728,-1.88688 20.2432,-2.289 9.6457,-0.33685 18.5533,-1.13921 19.7945,-1.78303 7.8421,-4.06757 24.4941,-5.18297 41.8574,-2.80372 0.4678,0.0641 1.0303,1.37642 1.25,2.91627 0.5108,3.58065 4.7744,4.64778 4.7744,1.19499 0,-3.19829 2.114,-4.74286 7.6535,-5.59186 3.1177,-0.47784 5.6489,-0.01 8.125,1.50187 7.9678,4.86484 20.4715,23.0032 20.4715,29.69664 0,4.82024 2.7374,6.70604 10.2253,7.04424 5.0344,0.22737 5.0947,0.17705 6.8398,-5.7081 2.752,-9.28109 7.3568,-7.08023 11.2391,5.37179 1.1688,3.74863 2.825,7.65946 3.6806,8.69071 0.8555,1.03125 2.5082,4.26725 3.6725,7.1911 1.2136,3.04735 4.1937,6.96085 6.9831,9.17005 5.6157,4.44772 7.0273,8.40559 4.8622,13.63255 -1.1297,2.72734 -2.6284,3.90112 -5.722,4.48149 -5.1468,0.96553 -5.9793,2.00097 -7.9595,9.89981 -2.479,9.8881 -8.9066,28.17045 -12.3051,35 -4.2748,8.5906 -13.311,19.83675 -18.8157,23.41745 -7.6969,5.00662 -38.1594,14.76224 -53.3253,17.0774 -4.8125,0.73466 -12.4062,1.9274 -16.875,2.65053 -13.8166,2.2358 -55.6825,2.68652 -65,0.69978 z m 83.75,-7.99151 c 23.1704,-6.1027 29.6441,-8.06556 39.4773,-11.96961 15.8055,-6.27526 18.8633,-8.72966 23.6836,-19.00979 5.8176,-12.40725 10.1836,-26.3331 13.2173,-42.15807 2.8667,-14.95388 2.5309,-18.95943 -1.6798,-20.03772 -1.5528,-0.39765 -6.4796,-3.99218 -10.9484,-7.98785 -4.4687,-3.99565 -9.6538,-8.23362 -11.5223,-9.41771 -1.9859,-1.25846 -3.1189,-2.87827 -2.7273,-3.89895 0.3686,-0.96034 0.064,-2.12052 -0.6763,-2.5782 -2.8246,-1.74568 -6.1162,0.88102 -8.6031,6.86535 -3.3753,8.12175 -6.9862,8.58476 -8.9875,1.15244 -0.7496,-2.7838 -1.0368,-6.08906 -0.6381,-7.34504 1.0882,-3.42864 -1.9236,-3.86366 -32.5542,-4.7023 -26.7524,-0.73245 -36.7912,-0.17481 -36.7912,2.04369 0,1.03336 11.5371,4.91631 21.875,7.36235 14.0671,3.32836 20.3059,5.50629 24.7363,8.63527 2.6808,1.89336 6.7892,4.4728 9.1297,5.73208 3.4707,1.86736 4.1209,2.82556 3.5259,5.19607 -0.8756,3.48875 1.3539,8.13934 3.9021,8.13934 2.9604,0 2.1278,3.00182 -2.5216,9.09102 -2.7093,3.54826 -5.695,5.99535 -7.9079,6.48138 -3.7936,0.83323 -9.4357,-0.76065 -10.862,-3.06848 -0.5104,-0.8258 -2.3207,-1.08066 -4.4126,-0.62121 -3.1414,0.68996 -3.8662,0.22468 -6.3366,-4.06774 -2.0648,-3.58762 -4.9909,-5.98871 -11.2631,-9.24216 l -8.4736,-4.39535 -7.2583,3.06191 c -6.1333,2.58734 -8.5038,2.94574 -15.2946,2.31239 -4.42,-0.41222 -8.6107,-1.32376 -9.3125,-2.02564 -0.7019,-0.70186 -2.8321,-1.27612 -4.7338,-1.27612 -5.3872,0 -11.988,-3.74735 -13.6443,-7.74615 -2.6319,-6.35395 -8.6348,-6.88966 -12.6686,-1.13059 -1.1424,1.63098 -4.6888,3.23651 -9.8213,4.44629 -11.3066,2.66506 -12.4082,2.5444 -12.4082,-1.35914 0,-3.11754 -0.2621,-3.25442 -5.0113,-2.61742 -4.1414,0.55547 -5.3342,0.21128 -6.8708,-1.9825 -1.7522,-2.50169 -1.9822,-2.53184 -3.9909,-0.52317 -1.4277,1.42773 -2.3021,4.81057 -2.6482,10.24553 -0.6319,9.92455 0.2018,12.90333 2.9687,10.60696 2.5118,-2.08456 7.664,1.53725 11.0932,7.79819 2.3922,4.36747 2.3915,4.47003 -0.071,10.52372 -1.4124,3.47305 -3.6704,6.64619 -5.2282,7.34719 -3.1903,1.43565 -3.3779,3.90248 -0.9522,12.51609 4.5289,16.08141 11.4601,28.39202 19.3365,34.34424 9.4516,7.14246 22.1031,8.81951 61.9987,8.21836 27.2843,-0.41113 34.0046,-0.88599 41.875,-2.95895 z m 30,-88.24949 c 0,-1.08853 0.8907,-1.97916 1.9792,-1.97916 1.0885,0 1.7565,0.66796 1.4844,1.48438 -0.7726,2.31777 -3.4636,2.7022 -3.4636,0.49478 z m -86.8077,-20.83807 c 0.462,-0.74741 0.2378,-1.96106 -0.4982,-2.69703 -1.5599,-1.55987 -5.6178,1.10908 -4.4815,2.94758 0.9514,1.53942 3.9673,1.38769 4.9797,-0.25055 z m 131.8077,-0.51609 c -1.7116,-2.06239 -5,-2.54195 -5,-0.72916 0,1.24729 2.1296,2.34954 4.8406,2.50547 1.3839,0.0796 1.4147,-0.26375 0.1594,-1.77631 z m -178.75,-6.875 c 0,-0.6875 -0.5625,-1.25 -1.25,-1.25 -0.6875,0 -1.25,0.5625 -1.25,1.25 0,0.6875 0.5625,1.25 1.25,1.25 0.6875,0 1.25,-0.5625 1.25,-1.25 z m 3.75,-6.25 c 0,-0.6875 -0.8437,-1.25 -1.875,-1.25 -1.0312,0 -1.875,0.5625 -1.875,1.25 0,0.6875 0.8438,1.25 1.875,1.25 1.0313,0 1.875,-0.5625 1.875,-1.25 z m 115.5024,-6.33243 c 1.5786,-1.58587 -2.443,-8.79327 -5.3077,-9.51227 -6.5314,-1.63929 -35.5017,2.15704 -41.1243,5.38904 -4.9596,2.85092 -5.1002,3.87203 -0.6329,4.59896 4.8808,0.79421 46.2166,0.37639 47.0649,-0.47573 z m -446.4244,90.91844 c -8.1664,-8.85946 -12.9862,-25.77728 -15.0129,-52.69642 -0.7281,-9.67034 -1.3628,-12.5404 -2.8151,-12.72926 -9.6031,-1.24889 -11.3255,-1.93434 -12.9504,-5.15389 -0.9386,-1.85979 -1.4556,-4.08456 -1.1489,-4.94394 0.8094,-2.26796 7.4895,-1.9145 11.8118,0.625 3.5861,2.10698 3.7888,2.09817 5.5053,-0.23891 2.3009,-3.13255 2.2662,-5.59135 -0.092,-6.49615 -1.5345,-0.58885 -1.3081,-1.39149 1.25,-4.43168 1.7182,-2.04191 3.124,-4.40792 3.124,-5.2578 0,-2.37157 6.3039,-7.78326 11.875,-10.1943 10.2141,-4.42046 33.2325,-6.61813 45,-4.29637 4.125,0.81387 11.4375,1.39385 16.25,1.28884 6.4097,-0.13989 9.4186,0.34891 11.25,1.82756 2.3456,1.89389 1.9636,1.98271 -6.1883,1.43872 -4.7785,-0.31888 -20.1456,-0.0821 -34.149,0.52617 -37.8071,1.64226 -39.732,2.88281 -42.1906,27.1913 -3.2774,32.40392 2.4553,63.41436 13.6541,73.86051 3.606,3.36361 4.1268,5.09461 1.533,5.09461 -0.9437,0 -3.9615,-2.4363 -6.7063,-5.41399 z m -54.3905,-22.81136 c -0.5156,-0.51772 -0.9375,-3.07778 -0.9375,-5.689 0,-3.35486 -0.6843,-5.11394 -2.3327,-5.99611 -1.8074,-0.9673 -2.5659,-3.44008 -3.3685,-10.98148 -1.4467,-13.59421 -1.0671,-44.55382 0.5841,-47.63917 3.1303,-5.84914 -2.9274,-9.01452 -6.5808,-3.43869 -2.2415,3.42099 -6.7187,5.30317 -8.4637,3.55812 -1.3255,-1.32548 3.2293,-7.79773 5.5649,-7.90748 0.8094,-0.038 2.7141,-1.64584 4.2326,-3.57288 l 2.7609,-3.50371 -3.0497,-1.38951 c -2.532,-1.15367 -2.9249,-2.01287 -2.3151,-5.06186 0.5802,-2.90098 0.1813,-3.96836 -1.8988,-5.08159 -1.6824,-0.9004 -2.6349,-2.63456 -2.6378,-4.80277 0,-1.86643 -1.1014,-5.19207 -2.4417,-7.39031 -2.4165,-3.96319 -2.4165,-4.00329 0,-4.77172 2.9861,-0.94775 3.1806,-3.81875 0.3654,-5.3942 -1.8428,-1.03127 -1.9865,-3.13597 -1.2779,-18.71339 0.4731,-10.39983 1.5686,-19.75634 2.6886,-22.96268 1.0396,-2.97617 2.5415,-10.47372 3.3375,-16.66122 0.8092,-6.28964 3.0194,-15.19988 5.0127,-20.20824 1.9609,-4.92702 3.5654,-10.95092 3.5654,-13.38644 0,-7.21326 2.5937,-23.6149 4.3734,-27.65532 0.9085,-2.0625 2.2878,-6.14556 3.0653,-9.07348 1.2369,-4.65843 1.7681,-5.23448 4.2519,-4.61108 2.2084,0.55425 3.1682,-0.0112 4.3239,-2.54784 1.8918,-4.1527 1.8705,-4.3926 -0.3899,-4.3926 -2.765,0 -2.3807,-1.54959 3.0756,-12.40165 7.3828,-14.68363 14.5176,-24.35006 18.5323,-25.10799 1.8608,-0.3513 3.5485,-1.60497 3.7802,-2.80811 0.2966,-1.54015 -0.1543,-1.95368 -1.5473,-1.41913 -2.6193,1.00513 -2.4714,-0.54348 0.5205,-5.45062 1.4354,-2.35411 3.505,-4.0625 4.9216,-4.0625 3.1862,0 3.8004,-1.15353 4.7119,-8.84943 0.4769,-4.02628 1.8375,-7.6906 3.6598,-9.8563 1.5954,-1.89602 2.5791,-3.76895 2.186,-4.16205 -2.003,-2.00298 3.2461,-10.24143 13.3049,-20.88222 6.1741,-6.53125 11.2265,-12.532241 11.2276,-13.335541 10e-4,-0.8033 1.8301,-2.605525 4.0644,-4.004925 2.2344,-1.399413 6.4913,-5.330338 9.4597,-8.735388 2.9685,-3.40505 7.1872,-6.907287 9.375,-7.782762 2.1878,-0.875475 5.3841,-3.113313 7.1028,-4.972975 1.7188,-1.85965 5.633,-4.331975 8.6983,-5.494038 3.0654,-1.162062 6.3316,-3.195425 7.2584,-4.5186 0.9268,-1.323175 2.4723,-2.405762 3.4343,-2.405762 0.9621,0 4.8189,-2.953125 8.5707,-6.5625 8.1342,-7.825488 14.889,-12.1875 18.8731,-12.1875 3.3274,0 16.2675,-6.488238 20.1208,-10.08875 1.4193,-1.326188 3.0037,-2.41125 3.5209,-2.41125 0.5172,0 2.7309,-1.341863 4.9194,-2.981925 2.1885,-1.640063 7.512,-4.252975 11.83,-5.806488 4.318,-1.553512 8.1481,-3.305387 8.5113,-3.893074 0.3632,-0.587681 1.4625,-1.068512 2.4428,-1.068512 1.7091,0 8.9184,-4.0231457 20.2576,-11.30467038 2.9219,-1.87631602 7.9844,-3.81211612 11.25,-4.30177712 3.2656,-0.489661 6.9937,-1.455555 8.2847,-2.1464299 1.2911,-0.690875 5.2286,-1.7167442 8.75,-2.2797092 3.5215,-0.5629654 8.934,-1.6706314 12.0277,-2.4614814 5.8715,-1.500906 11.8736,-1.107235 29.8513,1.957902 5.7619,0.9823904 17.5744,1.8014056 26.25,1.8200336 29.5215,0.06339 50.6139,3.855551 58.6539,10.545308 4.4088,3.6683167 25.9256,16.5801104 29.4089,17.6476604 5.7243,1.754338 18.4035,11.958575 20.5583,16.545213 1.402,2.9843 3.1584,4.74455 4.9946,5.005612 1.9397,0.275775 3.7917,2.29595 5.8766,6.410263 1.6743,3.304175 4.757,7.720325 6.8503,9.813675 2.0934,2.09335 3.8061,4.37765 3.8061,5.076225 0,2.2075 10.095,13.037738 14.1935,15.227287 2.1624,1.155163 4.1113,3.302838 4.331,4.7726 0.2197,1.469763 0.8367,2.672288 1.3712,2.672288 0.9823,0 5.2986,3.297888 8.9877,6.86705 1.2067,1.167375 1.7734,3.172454 1.4198,5.022474 -0.3995,2.089945 0.071,3.332597 1.4651,3.867457 1.1295,0.43345 3.1765,3.25295 4.5489,6.26555 2.1106,4.63299 3.0529,5.47746 6.1121,5.47746 4.1604,0 4.9725,1.122 15.3809,21.25 3.7329,7.21875 10.6541,19.03125 15.3804,26.25 4.7263,7.21875 10.9378,17.76846 13.8035,23.4438 2.8657,5.67534 5.7325,11.01909 6.3707,11.875 0.6383,0.85591 2.1717,4.08745 3.4076,7.1812 1.236,3.09375 3.0303,7.11804 3.9874,8.94286 0.9571,1.82483 1.7526,4.63733 1.7677,6.25 0.015,1.61268 1.1401,5.38419 2.5,8.38114 1.3599,2.99696 2.4765,6.65321 2.4812,8.125 0.01,1.4718 1.3865,6.73539 3.0705,11.69687 5.432,16.00494 6.5801,31.28527 6.4315,85.60396 -0.093,34.13076 -0.5632,50.05243 -1.5051,50.9944 -0.9926,0.99272 -2.4518,0.35838 -5.3034,-2.30539 l -3.9341,-3.67496 0.07,-20.44444 c 0.039,-11.24444 -0.4982,-26.91319 -1.1929,-34.81944 -1.5872,-18.06476 -2.1896,-38.9833 -1.1699,-40.625 0.427,-0.6875 0.2406,-6.57618 -0.4143,-13.08595 -0.8644,-8.59232 -0.7954,-12.57459 0.2518,-14.53125 1.0905,-2.03772 1.0894,-3.35486 0,-5.39876 -0.7958,-1.48691 -1.1256,-3.71569 -0.733,-4.95284 0.4182,-1.31746 -0.5889,-4.16917 -2.4307,-6.88329 -1.7302,-2.54866 -3.1453,-6.16587 -3.1453,-8.03825 0,-1.87238 -1.4063,-5.47381 -3.125,-8.00317 -1.7188,-2.52938 -3.1345,-5.05058 -3.146,-5.60268 -0.032,-1.52009 -10.4956,-21.57314 -18.7868,-36.00381 -1.9751,-3.4375 -4.7322,-8.56631 -6.1271,-11.39736 -1.3948,-2.83105 -3.3863,-5.85305 -4.4256,-6.71556 -1.0392,-0.8625 -1.8895,-2.27419 -1.8895,-3.13708 0,-0.86289 -0.8849,-2.30326 -1.9664,-3.20083 -1.0815,-0.89756 -3.0561,-3.63831 -4.3881,-6.09055 -11.162,-20.55021 -43.438,-55.693986 -56.7438,-61.785611 -11.3046,-5.175413 -14.9486,-5.435438 -18.7463,-1.33765 -1.9926,2.15 -4.7446,3.593362 -7.2465,3.800625 -2.2187,0.1838 -7.3535,0.622487 -11.4108,0.97485 -5.2816,0.458713 -8.1121,0.125662 -9.9656,-1.172575 -1.4238,-0.997288 -4.926,-1.81325 -7.7826,-1.81325 -3.0918,0 -5.8236,-0.75885 -6.7499,-1.875 -0.8777,-1.057525 -3.6026,-1.875 -6.25,-1.875 -2.6474,0 -5.3724,-0.817475 -6.25,-1.875 -0.8559,-1.03125 -3.4684,-1.875 -5.8056,-1.875 -3.4948,0 -5.445,-1.21475 -10.9812,-6.840113 -3.7024,-3.762062 -7.0234,-7.558937 -7.3801,-8.4375 -0.4462,-1.099225 -1.4482,-0.622812 -3.213,1.527613 -3.2247,3.9295 -3.245,5.29705 -0.1201,8.125 2.6394,2.388575 3.3586,5.625 1.25,5.625 -0.6875,0 -1.25,-0.564313 -1.25,-1.254025 0,-0.710713 -3.1141,-1.189038 -7.1875,-1.104 -3.9531,0.0825 -8.9907,-0.2571 -11.1946,-0.754725 -2.6099,-0.589263 -6.3717,-0.161025 -10.7879,1.22805 -5.1804,1.629412 -7.3867,1.8085 -9.3482,0.75875 -1.4121,-0.755725 -4.5559,-1.37405 -6.9861,-1.37405 -4.5518,0 -14.1252,-4.20865 -16.4146,-7.216112 -0.7116,-0.934838 -3.6647,-2.017713 -6.5625,-2.406388 -3.2803,-0.439975 -5.2686,-1.352175 -5.2686,-2.417088 0,-1.114037 -1.4917,-1.710412 -4.2781,-1.710412 -3.7826,0 -4.4456,-0.507762 -5.7251,-4.3846 -1.6084,-4.87365 -4.3708,-6.8654 -9.5216,-6.8654 -1.8915,0 -4.7095,-1.1935 -6.2623,-2.652225 -2.3446,-2.202712 -3.6294,-2.488013 -7.5805,-1.683287 -8.3155,1.6936 -11.9541,0.804874 -15.8162,-3.863138 -3.5425,-4.28175 -8.5323,-5.7355 -10.2343,-2.981688 -0.5031,0.814151 -4.4817,1.128663 -10.3862,0.821025 -6.17,-0.32145 -11.3474,0.119125 -14.5707,1.2399 -2.75,0.956188 -6.0386,1.468951 -7.3081,1.139463 -2.9125,-0.755938 -5.7984,0.312575 -5.8777,2.176187 -0.034,0.785813 -5.7641,4.23535 -12.7347,7.665638 -11.8859,5.8491 -16.9867,9.131025 -35.9613,23.138125 -4.1909,3.09375 -10.8257,7.3125 -14.744,9.375 -4.4289,2.33125 -7.2895,4.695838 -7.5611,6.25 -0.2403,1.375 -3.0987,5.031244 -6.3521,8.124991 -11.1902,10.6413 -30.3632,31.8163 -31.4888,34.77695 -0.62,1.63074 -2.2362,3.25494 -3.5914,3.60934 -1.3552,0.35441 -4.0713,3.2531 -6.0357,6.44154 -1.9644,3.18845 -6.1925,8.60846 -9.3958,12.04448 -3.2034,3.43603 -5.8243,6.59307 -5.8243,7.01563 0,0.42256 -1.6492,2.84356 -3.6649,5.38 -2.0157,2.53644 -4.0201,6.22867 -4.4542,8.20496 -0.434,1.9763 -2.1598,4.49135 -3.8351,5.589 -3.4526,2.26225 -3.941,5.86431 -1.1708,8.63453 2.4836,2.48362 2.3651,4.8315 -0.4263,8.4475 -1.2657,1.63958 -2.6081,4.10607 -2.9832,5.48107 -0.375,1.375 -1.0871,3.48438 -1.5824,4.6875 -0.6864,1.66719 -0.2876,2.1875 1.6765,2.1875 2.0063,0 2.7494,1.03819 3.3552,4.6875 0.4279,2.57813 1.2911,6.30105 1.9182,8.27316 1.1172,3.51309 0.7635,7.03487 -1.3345,13.28934 -0.5765,1.71875 -1.3127,5.45351 -1.6359,8.29949 -0.5068,4.46237 -0.1981,5.35201 2.2436,6.4645 4.0052,1.82491 4.9414,8.71401 1.6693,12.28449 -2.0136,2.19718 -2.3842,4.14 -2.0804,10.90511 0.2375,5.2888 -0.1782,8.77947 -1.1627,9.76402 -0.8428,0.84282 -1.5324,3.20373 -1.5324,5.24647 0,2.04273 -0.7526,4.60211 -1.6723,5.6875 -2.5794,3.04376 -7.935,19.86266 -8.9872,28.22342 -2.0767,16.50029 -1.3077,23.05834 4.1885,35.72189 2.8116,6.47796 5.4942,13.46561 5.9613,15.52811 0.4672,2.0625 1.5797,5.15625 2.4723,6.875 0.8926,1.71875 1.9493,4.66165 2.3483,6.53976 0.4448,2.09418 2.1685,4.16109 4.4572,5.3446 5.7205,2.95818 4.2479,6.64364 -2.0254,5.06914 -2.1867,-0.54884 -3.8499,-2.4959 -5.5804,-6.53309 -3.1714,-7.39849 -12.3902,-21.67041 -13.9978,-21.67041 -0.7692,0 -0.9257,2.75504 -0.4137,7.28116 0.7713,6.81705 0.5824,7.58497 -2.9635,12.04689 -4.093,5.15041 -4.0063,4.88855 -4.3636,13.17195 -0.1334,3.09375 -0.6531,11.53125 -1.1549,18.75 -0.5018,7.21875 -0.4085,16.65583 0.2072,20.97129 1.1496,8.05781 0.3814,17.48007 -1.2885,15.80336 z m 20.0729,-244.3684 c -0.2463,-0.73906 -0.9822,-1.34375 -1.6354,-1.34375 -0.6531,0 -1.389,0.60469 -1.6354,1.34375 -0.2463,0.73906 0.4896,1.34375 1.6354,1.34375 1.1459,0 1.8818,-0.60469 1.6354,-1.34375 z M 549.52151,66.633437 c 0,-0.81415 1.1641,-1.093338 2.8229,-0.677013 2.9957,0.751863 7.0572,-0.974087 5.6362,-2.3951 -1.5691,-1.56905 -12.2091,0.748413 -12.2091,2.659213 0,0.989125 0.8438,1.798412 1.875,1.798412 1.0313,0 1.875,-0.623475 1.875,-1.385512 z m -45,-13.633625 c 1.6667,-1.0941 1.6667,-1.367625 0,-2.461725 -2.702,-1.773775 -6.25,-1.548113 -6.25,0.397524 0,3.33645 2.8687,4.283888 6.25,2.064201 z M 330.18321,425.63447 c -1.4059,-4.42968 3.1628,-11.49003 10.0743,-15.56868 17.9324,-10.58226 23.5799,-12.24843 55.514,-16.37813 8.5938,-1.11132 16.972,-2.31007 18.6183,-2.66386 5.8327,-1.25344 0.5562,-3.10283 -13.3899,-4.69313 -7.6564,-0.87308 -14.2724,-1.93912 -14.7023,-2.36897 -1.8735,-1.87351 9.6168,-2.41952 20.834,-0.99001 6.7155,0.85581 12.7708,1.20941 13.4563,0.78576 0.6854,-0.42365 2.5541,-0.25646 4.1525,0.37154 11.7052,4.59888 21.2841,6.12766 24.7314,3.94712 1.557,-0.98484 1.4694,-1.54786 -0.5962,-3.83036 -1.7789,-1.96557 -3.3416,-2.4918 -5.8878,-1.98256 -2.812,0.5624 -3.4663,0.2465 -3.4663,-1.67355 0,-2.618 -5.5844,-6.45594 -12.7019,-8.72956 -2.5174,-0.80414 -4.8482,-2.16884 -5.1797,-3.03269 -0.3315,-0.86384 -2.9125,-2.33293 -5.7355,-3.26461 -2.8231,-0.93169 -5.1329,-2.16645 -5.1329,-2.74391 0,-0.57747 -1.6252,-1.04993 -3.6115,-1.04993 -1.9863,0 -4.9003,-1.04361 -6.4755,-2.31914 l -2.864,-2.31912 2.7255,-2.33368 c 3.2114,-2.7497 3.4997,-5.82946 0.7586,-8.10438 -1.7505,-1.45273 -1.6226,-1.81289 1.1614,-3.27159 2.6975,-1.41337 3.9297,-1.29568 8.9456,0.85439 3.1995,1.37143 6.9962,2.49352 8.4373,2.49352 1.4411,0 4.3476,0.51425 6.4589,1.14278 17.0943,5.08891 21.7732,6.12425 24.8529,5.49942 2.6776,-0.54324 4.3143,0.0503 6.875,2.4929 3.7081,3.5371 8.924,5.8649 13.1415,5.8649 1.5086,0 3.4249,1.09201 4.2585,2.42669 0.8335,1.33467 4.2032,3.9624 7.4881,5.83939 3.285,1.87698 8.3174,5.28497 11.1831,7.57331 2.8657,2.28833 6.3813,4.16061 7.8125,4.16061 1.5034,0 2.6021,0.80829 2.6021,1.91423 0,1.05283 0.8438,2.23801 1.875,2.63373 1.0313,0.39574 1.875,1.59942 1.875,2.67485 0,1.07544 0.8037,2.84338 1.786,3.92877 1.6012,1.7694 1.2191,1.97342 -3.6962,1.97342 -4.0191,0 -5.9863,0.66718 -7.3712,2.5 -1.0398,1.37614 -1.9069,1.79759 -1.9288,0.9375 -0.024,-0.95514 -1.8618,-1.58366 -4.7273,-1.61694 -2.5781,-0.03 -7.2187,-0.54598 -10.3125,-1.14677 -3.0937,-0.60078 -8.2897,-0.78003 -11.5465,-0.39833 l -5.9216,0.69399 5.6091,4.37 c 3.0849,2.40349 5.609,4.88541 5.609,5.51538 0,0.62996 -2.6718,0.97658 -5.9375,0.77027 -5.6061,-0.35416 -5.9589,-0.19002 -6.3213,2.94154 -0.2646,2.28575 0.4671,3.91272 2.3542,5.23445 2.618,1.83371 2.4949,1.90156 -2.8064,1.54716 -6.5417,-0.43732 -9.9418,-2.05906 -13.3192,-6.35283 -2.7104,-3.44572 -10.8496,-7.37587 -13.3155,-6.42962 -0.8546,0.32795 -2.1955,3.1444 -2.9797,6.25876 -0.7842,3.11438 -2.7728,7.22845 -4.4191,9.1424 -2.6394,3.06848 -4.0064,3.53023 -11.5619,3.90546 -23.7641,1.18024 -24.6661,1.09933 -30.4554,-2.73185 l -5.4377,-3.5985 -10.7127,1.63235 c -6.8184,1.03895 -13.2649,2.95469 -17.7332,5.26985 -4.4755,2.3189 -9.7506,3.88507 -14.552,4.32044 -6.9259,0.62801 -7.6008,0.4652 -8.3909,-2.02419 z m 155.5883,-22.61553 c 0,-0.6875 0.5625,-1.25 1.25,-1.25 0.6875,0 1.25,0.5625 1.25,1.25 0,0.6875 -0.5625,1.25 -1.25,1.25 -0.6875,0 -1.25,-0.5625 -1.25,-1.25 z M 334.59597,347.45491 c 5.23905,-0.13932 21.15198,-4.96987 28.77343,-1.8475 5.23328,2.14398 7.70321,4.83565 3.47556,4.85445 -53.68487,0.23868 -24.44332,7.12263 -27.70927,1.23855 0,0 -6.10615,0.63804 -4.53972,-4.2455 z M 569.11571,84.696461 c -1.1266,-1.126574 1.5639,-4.177512 3.6839,-4.177512 2.1209,0 2.2164,1.505525 0.2219,3.5 -1.6952,1.695225 -2.7117,1.871563 -3.9058,0.677512 z"
       style="fill:#08528a;fill-opacity:1"
       sodipodi:nodetypes="ccscscssssscssssccsssssssssssssccssscsssssssscscscsscsssccsssccccssscccssccccscscscccsscscssssssscsscccsccccscsscccscsscscsscssscsssccscsssscssssscssscsssssscsssssscscccscsscsssscscsssscssssccssscsssssscsccsssssccsscscsssssssssssssscssssscccccccccccsscscsscssssssccscsscccscsssssssssssssscssssscsccsscsssccsssssccscccscsssscssscscssssssssscccsscssssssssssscssscsscsssssssssscssssssssssscssscssssscscsscssscccssssssssscsssssscccscssssscssscssscsscscssssccscccssssccsscscsccsssssssssssssscsssccsscsscccsssscssssscccscsssccsccsscccssssssscccssssscssssscccsccsssssssssssscssssssssccscsscccsssssccscsccccsccscsccccscccccsscsssssscscssccsssscssscssscscsscssscsssssssscssccssccscccscsssscsscscsscscscsscccscscsscsssscsscsssscscsscsssssssscscsssssssccssscscscccssccssccsscsssscsssccssssscssccssss" />
  </g>
</svg>
