<?xml version="1.0" encoding="UTF-8" standalone="no"?>
<!-- Created with Inkscape (http://www.inkscape.org/) -->

<svg
   xmlns:dc="http://purl.org/dc/elements/1.1/"
   xmlns:cc="http://creativecommons.org/ns#"
   xmlns:rdf="http://www.w3.org/1999/02/22-rdf-syntax-ns#"
   xmlns:svg="http://www.w3.org/2000/svg"
   xmlns="http://www.w3.org/2000/svg"
   xmlns:sodipodi="http://sodipodi.sourceforge.net/DTD/sodipodi-0.dtd"
   xmlns:inkscape="http://www.inkscape.org/namespaces/inkscape"
   width="33.424046mm"
   height="33.424046mm"
   viewBox="0 0 118.43166 118.43165"
   id="svg2"
   version="1.1"
   inkscape:version="0.91 r13725"
   sodipodi:docname="linux.svg">
  <defs
     id="defs4" />
  <sodipodi:namedview
     id="base"
     pagecolor="#ffffff"
     bordercolor="#666666"
     borderopacity="1.0"
     inkscape:pageopacity="0.0"
     inkscape:pageshadow="2"
     inkscape:zoom="5.0577689"
     inkscape:cx="66.909199"
     inkscape:cy="68.299673"
     inkscape:document-units="px"
     inkscape:current-layer="layer1"
     showgrid="false"
     fit-margin-top="0"
     fit-margin-left="0"
     fit-margin-right="0"
     fit-margin-bottom="0"
     inkscape:window-width="1920"
     inkscape:window-height="1016"
     inkscape:window-x="0"
     inkscape:window-y="27"
     inkscape:window-maximized="1" />
  <metadata
     id="metadata7">
    <rdf:RDF>
      <cc:Work
         rdf:about="">
        <dc:format>image/svg+xml</dc:format>
        <dc:type
           rdf:resource="http://purl.org/dc/dcmitype/StillImage" />
        <dc:title></dc:title>
      </cc:Work>
    </rdf:RDF>
  </metadata>
  <g
     inkscape:label="Layer 1"
     inkscape:groupmode="layer"
     id="layer1"
     transform="translate(-370.82232,-341.80862)">
    <circle
       style="color:#000000;clip-rule:nonzero;display:inline;overflow:visible;visibility:visible;opacity:0.95999995;isolation:auto;mix-blend-mode:normal;color-interpolation:sRGB;color-interpolation-filters:linearRGB;solid-color:#000000;solid-opacity:1;fill:#ffffff;fill-opacity:1;fill-rule:evenodd;stroke:none;stroke-width:2;stroke-linecap:square;stroke-linejoin:bevel;stroke-miterlimit:4;stroke-dasharray:0.2, 0.4;stroke-dashoffset:0;stroke-opacity:1;color-rendering:auto;image-rendering:auto;shape-rendering:auto;text-rendering:auto;enable-background:accumulate"
       id="path7187"
       cx="430.03815"
       cy="401.02444"
       r="59.215832" />
    <path
       style="color:#000000;clip-rule:nonzero;display:inline;overflow:visible;visibility:visible;opacity:1;isolation:auto;mix-blend-mode:normal;color-interpolation:sRGB;color-interpolation-filters:linearRGB;solid-color:#000000;solid-opacity:1;fill:#ffffff;fill-opacity:1;fill-rule:evenodd;stroke:none;stroke-width:1px;stroke-linecap:butt;stroke-linejoin:miter;stroke-miterlimit:4;stroke-dasharray:none;stroke-dashoffset:0;stroke-opacity:1;color-rendering:auto;image-rendering:auto;shape-rendering:auto;text-rendering:auto;enable-background:accumulate"
       d="m 404.63586,415.65031 2.06204,-12.0629 4.22717,-10.10397 8.04193,-11.65049 -0.92791,-21.23895 10.10396,-7.21712 10.00087,3.71166 6.39231,22.99168 15.05285,31.34292 -0.41241,7.62953 -15.98076,18.97072 -12.78462,-1.85584 -14.43424,3.19616 z"
       id="path4753"
       inkscape:connector-curvature="0" />
    <path
       style="color:#000000;clip-rule:nonzero;display:inline;overflow:visible;visibility:visible;opacity:1;isolation:auto;mix-blend-mode:normal;color-interpolation:sRGB;color-interpolation-filters:linearRGB;solid-color:#000000;solid-opacity:1;fill:#ffcc00;fill-opacity:1;fill-rule:evenodd;stroke:none;stroke-width:1px;stroke-linecap:butt;stroke-linejoin:miter;stroke-miterlimit:4;stroke-dasharray:none;stroke-dashoffset:0;stroke-opacity:1;color-rendering:auto;image-rendering:auto;shape-rendering:auto;text-rendering:auto;enable-background:accumulate"
       d="m 418.13165,377.02626 c 0,0 5.00081,-5.38912 8.47082,-5.28252 2.28951,0.0703 12.32085,4.72275 12.32085,4.72275 l -1.50533,3.6444 -11.95328,6.20679 -7.75639,-7.28151 z"
       id="path4488"
       inkscape:connector-curvature="0"
       sodipodi:nodetypes="csccccc" />
    <path
       style="color:#000000;clip-rule:nonzero;display:inline;overflow:visible;visibility:visible;opacity:1;isolation:auto;mix-blend-mode:normal;color-interpolation:sRGB;color-interpolation-filters:linearRGB;solid-color:#000000;solid-opacity:1;fill:#ffcc00;fill-opacity:1;fill-rule:evenodd;stroke:none;stroke-width:1px;stroke-linecap:butt;stroke-linejoin:miter;stroke-miterlimit:4;stroke-dasharray:none;stroke-dashoffset:0;stroke-opacity:1;color-rendering:auto;image-rendering:auto;shape-rendering:auto;text-rendering:auto;enable-background:accumulate"
       d="m 393.19157,435.44584 21.44516,5.7737 5.46439,-2.57754 -0.30931,-7.01092 -13.81563,-18.66141 c 0,0 -4.63957,1.85583 -4.63957,2.88685 0,1.03102 0.2062,2.98995 0.2062,2.98995 l -2.26824,2.26824 -3.19615,0.61861 -2.68064,0.3093 c 0,0 -0.30931,3.71166 0.5155,5.6706 0.82482,1.95893 -1.34032,5.87679 -1.34032,5.87679 z"
       id="path4490"
       inkscape:connector-curvature="0" />
    <path
       style="color:#000000;clip-rule:nonzero;display:inline;overflow:visible;visibility:visible;opacity:1;isolation:auto;mix-blend-mode:normal;color-interpolation:sRGB;color-interpolation-filters:linearRGB;solid-color:#000000;solid-opacity:1;fill:#ffcc00;fill-opacity:1;fill-rule:evenodd;stroke:none;stroke-width:1px;stroke-linecap:butt;stroke-linejoin:miter;stroke-miterlimit:4;stroke-dasharray:none;stroke-dashoffset:0;stroke-opacity:1;color-rendering:auto;image-rendering:auto;shape-rendering:auto;text-rendering:auto;enable-background:accumulate"
       d="m 444.94864,415.85652 10.00086,2.47444 c 0,0 6.58045,-7.86236 5.9799,1.54652 -0.3093,4.84579 6.28921,8.66055 6.28921,8.66055 l 0.2062,1.64963 -8.66054,4.94888 -8.66055,6.1861 -6.80471,-1.85583 0.51551,-12.68151 -0.51551,-9.79466 z"
       id="path4492"
       inkscape:connector-curvature="0"
       sodipodi:nodetypes="ccscccccccc" />
    <g
       style="font-style:normal;font-variant:normal;font-weight:100;font-stretch:normal;font-size:90px;line-height:125%;font-family:Diploma;-inkscape-font-specification:'Diploma, Thin';text-align:start;letter-spacing:0px;word-spacing:0px;writing-mode:lr-tb;text-anchor:start;fill:#000000;fill-opacity:1;stroke:none;stroke-width:1px;stroke-linecap:butt;stroke-linejoin:miter;stroke-opacity:1"
       id="text4136">
      <path
         d="m 424.72655,373.00395 c -1.60714,-0.10045 -1.70759,1.05469 -1.20536,1.00446 0.55246,0 0.2009,-0.90401 1.20536,-1.00446 z m 4.36942,0.70312 c 0.50223,-0.20089 0,-1.20535 -1.45647,-0.55245 0.90401,-0.25112 0.95424,0.70312 1.45647,0.55245 z m -17.62835,21.44532 c 0.40179,0.15067 0.15067,0.60268 -0.10045,1.45647 -0.30133,0.70313 -1.00446,1.3058 -1.25558,1.25558 -0.70312,-0.10045 0.2009,-0.60268 0.55246,-1.25558 0.45201,-0.70312 0.35156,-1.60714 0.80357,-1.45647 z m 42.94085,18.03013 c -2.05915,-1.65736 -8.23661,-1.9587 -8.38728,2.05915 -1.10491,0 -1.90848,0.10045 -2.56138,0.90402 -2.51116,2.96317 -0.20089,8.88951 -0.45201,12.1038 -0.20089,2.8125 -1.00446,5.57477 -1.40625,8.38727 -1.5067,-0.0502 -1.35603,-1.10491 -0.90402,-2.66183 0.45201,-1.35602 1.10491,-3.01339 1.15514,-4.62053 0.0502,-1.5067 -0.10045,-2.41072 -0.50224,-2.61161 -0.35156,-0.25112 -0.90401,0.20089 -1.70759,1.5067 -1.70759,2.76227 -5.4241,3.96763 -8.8895,4.36942 -3.41518,0.452 -6.62947,0.10044 -8.33706,-1.80804 -0.55245,-0.6529 -1.55692,0.20089 -1.65736,0.35156 -0.15067,0.25112 0.55245,0.70313 1.10491,1.70759 0.80357,1.40625 1.55692,3.61607 -0.35157,4.62054 0.0502,-5.07255 -1.55692,-5.37389 -3.21428,-8.48773 3.21428,-0.35156 3.66629,-3.76674 2.10937,-5.22321 -1.20535,-1.25558 -8.13616,-6.37835 -9.89397,-8.38728 -0.85379,-0.90402 -2.00893,-1.35602 -2.46094,-2.41071 -1.10491,-2.41072 -1.85826,-5.87612 -0.50223,-8.33706 0.25112,-0.452 0.45201,-0.25111 0.25112,0.65291 -1.10491,5.27343 2.31026,9.59263 3.06361,7.38281 0.55246,-1.5067 0.0502,-4.21875 0.35156,-6.42857 0.50224,-3.81697 3.96764,-11.19978 5.52456,-11.60156 -2.36049,-4.41965 2.76228,-7.83483 2.71205,-11.70201 -0.0502,-2.51116 2.20982,3.06361 4.46987,4.26897 2.51116,1.3058 5.27344,-2.51116 9.19085,-4.41964 1.10491,-0.55246 2.51116,-1.15514 2.41071,-1.65737 -0.45201,-2.26004 -5.12277,2.8125 -9.34152,2.96317 -1.90848,0.0502 -2.6116,-0.40179 -3.36495,-1.10491 -2.20982,-2.1596 0.25111,-0.35156 3.56585,-0.95424 1.45647,-0.25112 1.9587,-0.50223 3.51562,-1.15514 1.60714,-0.60267 3.36496,-1.55692 5.12277,-2.05915 1.25558,-0.30134 1.15513,-1.25558 0.6529,-1.50669 -0.25112,-0.15067 -0.6529,-0.15067 -1.00446,0.40178 -0.75335,1.30581 -4.3192,2.05915 -5.42411,2.41072 -1.45647,0.45201 -3.01339,0.85379 -5.12277,0.75334 -3.21428,-0.10044 -2.46094,-1.60714 -4.7712,-2.91294 -0.65291,-0.35156 -0.45201,-1.35603 0.40178,-2.26005 0.50223,-0.45201 1.75781,-0.75334 2.41072,-1.80803 0.10044,-0.15067 0.90401,-1.00447 1.55692,-1.45648 0.20089,-0.15067 0.20089,-4.06808 -1.75782,-4.1183 -1.70759,-0.0502 -2.20982,1.25558 -2.1596,2.56138 0.10045,1.30581 0.80358,2.41072 1.25558,2.41072 0.90402,-0.0502 0.0502,0.95424 -0.452,1.10491 -0.75335,0.25112 -1.75782,-2.91295 -1.60715,-4.41964 0.10045,-1.60715 0.90402,-4.41965 2.91295,-4.36942 1.80804,0.0502 3.11384,2.31027 3.06362,6.22768 0,0.6529 2.91294,-0.30134 3.91741,0.75334 0.70312,0.70313 -2.41072,-6.9308 4.52009,-7.48325 1.80803,0.35156 3.56584,0.95424 4.26897,5.17299 -0.25112,0.40178 0.45201,3.31473 -0.6529,3.66629 -1.35603,0.45201 -2.20982,-0.0502 -1.40625,-1.35603 0.50223,-1.3058 0,-4.62053 -2.76228,-4.41964 -2.8125,0.15067 -2.41071,5.12277 -1.65737,5.22322 0.75335,0.10044 2.66183,1.45647 4.01786,1.70758 4.36942,0.8538 1.15514,3.36496 1.70759,6.42858 0.6529,3.41517 2.91295,2.51116 4.9721,11.65178 0.40178,0.55246 2.10937,1.05469 3.76674,8.08594 1.45647,6.2779 -0.60268,10.89844 2.91295,10.49665 0.80357,-0.0502 2.00892,-0.30134 2.51116,-2.10937 1.3058,-4.62054 -0.70313,-10.19532 -2.71206,-13.96206 -1.15513,-2.20982 -2.26004,-3.66629 -2.86272,-4.16852 2.31027,1.35602 5.27344,5.72544 5.97656,8.93973 0.90402,4.26897 1.5067,6.07701 0.15067,10.5971 0.80357,0.35156 2.76228,1.20535 2.76228,2.10937 z m -31.54018,-41.5346 c 0,0.15067 -0.10045,0.15067 -0.15067,0.15067 -0.45201,0 -0.50223,-0.40178 -0.40178,-1.00446 0.10044,-0.45201 -0.15067,-0.75335 -0.35157,-0.75335 -0.30134,0.10045 -0.40178,-0.80357 0.2009,-0.6529 0.30133,0.10044 0.90401,1.00446 0.70312,2.26004 z m 21.04353,9.89398 c 0.15067,0.70312 -0.30134,1.50669 -0.90402,1.40625 -1.00446,-0.2009 -3.36496,-2.61161 -2.31027,-3.76674 0.35156,-0.35157 0.55246,0.6529 1.5067,1.25558 0.80357,0.50223 1.50669,0.15067 1.70759,1.10491 z m -8.93973,-10.69755 c 0,0.15067 -0.50224,0.35156 -0.50224,0.25112 -0.10044,-0.75335 -0.50223,-1.45648 -0.90401,-1.55692 -0.30134,-0.10045 -0.50224,-0.40179 0.15066,-0.45201 0.25112,-0.0502 1.30581,0.55245 1.25559,1.75781 z m 2.71205,-11.70201 c -0.25112,0.55246 -1.40625,0.40179 -1.65737,0.50223 -0.95424,0.35157 -1.25558,1.25559 -1.70759,0.90402 -0.50223,-0.40178 0.25112,-0.85379 0.45201,-1.40625 0.15067,-0.50223 -0.35156,-1.55692 0.6529,-1.65736 0.40179,0 0.80358,0.35156 1.20536,0.75334 0.45201,0.35157 1.10491,0.65291 1.05469,0.90402 z m 28.37611,67.34933 c -1.40625,-0.90401 -4.82142,-1.85826 -5.12276,-8.38727 -1.30581,1.15513 -1.15514,7.23214 2.46093,8.4375 4.01786,1.35602 6.52902,3.61607 -0.95424,6.17745 -4.92187,1.70759 -5.77567,2.20982 -9.69308,5.47433 -3.96763,3.31473 -9.89397,2.00893 -8.83928,-4.92187 0.55245,-3.6663 0.85379,-6.62947 -0.0502,-9.79353 -0.452,-1.5067 -0.6529,-3.51562 -0.35156,-4.87165 0.55246,-2.71206 2.00893,-3.51563 3.4654,-0.95424 0.90402,1.65736 1.20536,3.56585 4.41965,3.71652 5.02232,0.20089 6.02678,-4.87166 7.63392,-5.12277 1.05469,-0.15067 2.1596,-3.21429 1.35603,-8.13616 -0.90402,-5.27344 -4.01786,-13.56027 -7.98549,-17.77902 -3.31473,-3.51563 -5.37388,-6.57924 -6.67969,-10.94866 -1.10491,-3.71652 -1.70759,-7.28237 -1.50669,-10.74777 0.30134,-4.41964 -2.1596,-10.5971 -6.07701,-13.51004 -2.46094,-1.80804 -6.32813,-2.8125 -9.79353,-2.76228 -1.9587,0 -3.81696,0.30134 -5.22321,1.05469 -5.8259,3.16406 -6.62947,7.68415 -6.52902,12.85714 0.10045,4.82143 0.25111,10.34598 0.80357,15.5692 -0.6529,2.41071 -4.06808,6.98102 -6.22768,9.79352 -2.91294,2.86273 -4.36942,8.4375 -6.2779,13.30915 -1.00446,2.56139 -2.66183,3.76675 -2.8125,7.08148 -0.0502,0.95424 0,3.36495 0.85379,2.66183 3.41518,-2.61161 7.68416,4.01785 14.16295,14.16294 1.20536,1.95871 5.57478,10.14509 -2.05915,11.19978 -2.56138,0.35156 -6.67969,-1.45647 -10.64732,-2.46094 -3.56585,-0.85379 -7.23215,-1.40625 -9.24107,-1.9587 -1.25558,-0.35156 -1.75782,-0.80357 -1.85826,-1.30581 -0.30134,-1.35602 1.50669,-3.2645 1.55692,-4.87165 0.10044,-1.60714 -0.55246,-2.46093 -1.10491,-3.76674 -0.55246,-1.3058 -0.70313,-2.31027 -0.25112,-2.86272 0.30134,-0.45201 1.00446,-0.60268 2.1596,-0.50223 1.45647,0.15067 3.21428,-0.15067 4.16853,-0.75335 1.55691,-0.95424 2.31026,-2.91295 1.60714,-5.32366 0,2.36049 -0.80357,3.21428 -2.71206,4.31919 -1.80803,1.00447 -4.57031,0.15067 -5.87611,1.30581 -1.5067,1.3058 0.55245,4.7712 0.40178,7.33259 -0.15067,1.90848 -2.15959,4.1183 -1.25558,6.07701 0.90402,1.9587 5.17299,2.20982 9.59264,3.11383 6.32812,1.30581 9.99442,3.61608 12.90736,3.71652 4.26898,0.15067 4.92188,-4.1183 11.55134,-4.26897 1.95871,-0.0502 3.86719,-0.15067 5.77567,-0.20089 2.1596,0 4.3192,0 6.52902,0.0502 4.41964,0.15067 2.91295,2.46094 5.77567,3.91741 2.46094,1.25558 6.83036,0.75335 7.88504,-0.25112 1.40625,-1.35602 5.22322,-4.57031 8.08594,-6.02678 3.6663,-1.85826 12.15402,-5.02232 5.97656,-8.83929 z"
         id="path4141"
         inkscape:connector-curvature="0" />
    </g>
  </g>
</svg>
