<?xml version="1.0" encoding="UTF-8" standalone="no"?>
<!-- Created with Inkscape (http://www.inkscape.org/) -->

<svg
   xmlns:dc="http://purl.org/dc/elements/1.1/"
   xmlns:cc="http://creativecommons.org/ns#"
   xmlns:rdf="http://www.w3.org/1999/02/22-rdf-syntax-ns#"
   xmlns:svg="http://www.w3.org/2000/svg"
   xmlns="http://www.w3.org/2000/svg"
   xmlns:sodipodi="http://sodipodi.sourceforge.net/DTD/sodipodi-0.dtd"
   xmlns:inkscape="http://www.inkscape.org/namespaces/inkscape"
   width="293.68799pt"
   height="370.0423pt"
   id="svg10488"
   sodipodi:version="0.32"
   inkscape:version="0.91 r13725"
   sodipodi:docname="pear.svg"
   version="1.1">
  <defs
     id="defs3" />
  <sodipodi:namedview
     inkscape:window-y="29"
     inkscape:window-x="22"
     inkscape:window-height="878"
     inkscape:window-width="1440"
     id="base"
     pagecolor="#ffffff"
     bordercolor="#666666"
     borderopacity="1.0"
     inkscape:pageopacity="0.0"
     inkscape:pageshadow="2"
     inkscape:zoom="0.34070588"
     inkscape:cx="488.623"
     inkscape:cy="-50.546479"
     inkscape:document-units="px"
     inkscape:current-layer="layer1"
     showgrid="false"
     fit-margin-top="0"
     fit-margin-left="0"
     fit-margin-right="0"
     fit-margin-bottom="0"
     inkscape:window-maximized="0" />
  <metadata
     id="metadata4">
    <rdf:RDF>
      <cc:Work
         rdf:about="">
        <dc:format>image/svg+xml</dc:format>
        <dc:type
           rdf:resource="http://purl.org/dc/dcmitype/StillImage" />
        <dc:title></dc:title>
      </cc:Work>
    </rdf:RDF>
  </metadata>
  <g
     inkscape:label="Layer 1"
     inkscape:groupmode="layer"
     id="layer1"
     transform="translate(-42.626997,-18.150634)">
    <g
       id="g10397"
       transform="matrix(0.94963,0,0,0.94963,-108.3727,-137.8863)"
       inkscape:export-filename="C:\Documents and Settings\Owner\Desktop\pear_10x13.png"
       inkscape:export-xdpi="2.4515815"
       inkscape:export-ydpi="2.4515815">
      <path
         style="fill:#339900;fill-opacity:1"
         d="m 356.498,650.87654 c 33.40645,-3.31889 64.17666,-15.48408 91.3452,-36.11395 7.63643,-5.79849 23.5003,-21.55132 29.25286,-29.04803 25.31084,-32.98468 37.28091,-71.27996 35.00114,-111.97712 -0.69579,-12.4202 -1.03967,-14.80954 -3.06066,-21.26424 -2.85147,-9.10703 -3.73188,-15.58056 -3.38359,-24.87893 0.46163,-12.32364 2.46722,-18.29697 8.7417,-26.03606 15.42916,-19.0305 25.86534,-44.26628 28.54192,-69.01718 0.94565,-8.74459 0.38903,-23.40233 -1.22084,-32.14748 -2.62969,-14.2848 -9.07466,-29.61212 -17.33965,-41.23657 -5.01989,-7.06041 -15.6766,-17.78608 -22.71682,-22.86399 -5.29751,-3.82087 -5.32599,-3.85551 -4.94204,-6.00135 0.72035,-4.02587 4.34692,-13.85597 6.4081,-17.36971 2.74978,-4.68764 10.79189,-12.62663 15.63061,-15.43013 5.37326,-3.11318 12.37986,-5.73139 19.86245,-7.42214 3.45589,-0.78089 6.553,-1.68933 6.8824,-2.01877 0.87895,-0.87893 -4.91555,-22.88711 -6.20798,-23.57882 -1.43171,-0.76621 -13.14643,1.37174 -19.94724,3.6404 -20.15973,6.72499 -36.5824,20.0424 -50.81117,41.20364 -3.49778,5.20193 -3.66598,5.35395 -5.51092,4.98041 -19.13823,-3.87487 -28.64114,-4.82151 -44.09979,-4.39303 -13.75904,0.38138 -21.95085,1.76913 -32.98244,5.58749 -13.4797,4.66571 -24.56707,11.66716 -35.31165,22.29857 -10.26064,10.15257 -17.66366,20.65212 -27.1763,38.54362 -5.45149,10.25321 -9.27215,15.2118 -15.58828,20.231 -6.66334,5.29511 -10.11566,7.01665 -19.39646,9.67224 -26.16829,7.48776 -45.22799,16.57054 -63.78659,30.39712 -37.12197,27.65671 -59.55121,67.56436 -65.02936,115.70475 -0.85377,7.5027 -0.85927,27.61657 -0.01,35.62408 5.55902,52.39817 32.36497,99.84108 74.31431,131.52646 7.2649,5.48738 20.05877,12.43821 32.12723,17.45467 16.1876,6.72862 37.33788,12.12885 54.41766,13.89437 7.08432,0.73224 28.77979,0.7556 35.99594,0.0387 z"
         id="path1336"
         inkscape:connector-curvature="0" />
      <path
         style="fill:#ffffff;fill-opacity:1"
         d="m 268.66741,623.80152 c -3.12224,-1.62357 -9.16734,-5.23922 -13.43358,-8.03487 -51.53135,-33.76767 -81.8252,-91.20246 -79.6744,-151.05636 1.15053,-32.01806 11.09949,-61.10161 29.14193,-85.18991 4.70056,-6.27566 17.36375,-19.24371 23.76503,-24.33715 18.21952,-14.49709 39.89993,-24.49668 64.77044,-29.87384 8.56276,-1.85132 10.73287,-1.88803 14.13899,-0.23915 6.62009,3.20473 8.10692,12.44988 2.84797,17.70882 -2.24267,2.24268 -2.90133,2.47508 -13.86223,4.89128 -14.13449,3.11577 -30.12849,9.46606 -41.64238,16.53377 -47.57706,29.20481 -68.06409,88.38782 -50.94254,147.16295 9.9066,34.00757 32.08336,64.15725 62.14827,84.49176 2.51189,1.69895 7.80772,4.95877 11.76849,7.24403 8.37303,4.83099 10.08965,6.94468 10.08965,12.42318 0,4.86733 -2.37215,8.38026 -6.9508,10.29333 -3.73663,1.56129 -6.00573,1.18488 -12.16484,-2.01784 z"
         id="path10393"
         inkscape:connector-curvature="0" />
      <path
         style="fill:#ffffff;fill-opacity:1"
         d="m 335.38967,313.44243 c -5.34009,-2.64328 -7.04128,-7.77621 -4.99463,-15.07006 8.62796,-30.7482 29.38292,-56.67857 53.98403,-67.44536 13.07264,-5.72132 23.59087,-7.61657 39.61005,-7.13728 11.85522,0.35471 17.20838,1.23908 25.90252,4.27924 9.46736,3.31054 12.42615,6.35261 12.43236,12.78222 0.004,4.63977 -1.97318,7.94923 -5.88056,9.84076 -3.47195,1.68075 -6.29162,1.61564 -10.87536,-0.25114 -7.18627,-2.92666 -12.88524,-4.05486 -22.05171,-4.36542 -9.62362,-0.32606 -15.19325,0.338 -22.74713,2.7121 -19.85164,6.23916 -34.97532,21.27637 -44.61275,44.35768 -1.48608,3.55911 -3.25803,8.33828 -3.93767,10.62038 -1.61635,5.42742 -3.36352,7.95223 -6.65286,9.61395 -3.37678,1.7059 -6.81413,1.72715 -10.17629,0.0629 z"
         id="path10391"
         inkscape:connector-curvature="0" />
    </g>
  </g>
</svg>
