<?xml version="1.0" encoding="UTF-8" standalone="no"?>
<!-- Created with Inkscape (http://www.inkscape.org/) -->

<svg
   xmlns:dc="http://purl.org/dc/elements/1.1/"
   xmlns:cc="http://creativecommons.org/ns#"
   xmlns:rdf="http://www.w3.org/1999/02/22-rdf-syntax-ns#"
   xmlns:svg="http://www.w3.org/2000/svg"
   xmlns="http://www.w3.org/2000/svg"
   xmlns:sodipodi="http://sodipodi.sourceforge.net/DTD/sodipodi-0.dtd"
   xmlns:inkscape="http://www.inkscape.org/namespaces/inkscape"
   width="126.6952mm"
   height="60.795605mm"
   viewBox="0 0 448.91999 215.4175"
   id="svg9416"
   version="1.1"
   inkscape:version="0.91 r13725"
   sodipodi:docname="zend.svg">
  <defs
     id="defs9418" />
  <sodipodi:namedview
     id="base"
     pagecolor="#ffffff"
     bordercolor="#666666"
     borderopacity="1.0"
     inkscape:pageopacity="0.0"
     inkscape:pageshadow="2"
     inkscape:zoom="0.35"
     inkscape:cx="-513.39714"
     inkscape:cy="-15.148445"
     inkscape:document-units="px"
     inkscape:current-layer="layer1"
     showgrid="false"
     fit-margin-top="0"
     fit-margin-left="0"
     fit-margin-right="0"
     fit-margin-bottom="0"
     inkscape:window-width="1920"
     inkscape:window-height="1016"
     inkscape:window-x="0"
     inkscape:window-y="27"
     inkscape:window-maximized="1" />
  <metadata
     id="metadata9421">
    <rdf:RDF>
      <cc:Work
         rdf:about="">
        <dc:format>image/svg+xml</dc:format>
        <dc:type
           rdf:resource="http://purl.org/dc/dcmitype/StillImage" />
        <dc:title></dc:title>
      </cc:Work>
    </rdf:RDF>
  </metadata>
  <g
     inkscape:label="Layer 1"
     inkscape:groupmode="layer"
     id="layer1"
     transform="translate(-138.39714,-301.79626)">
    <g
       id="g10060"
       transform="matrix(0.125,0,0,-0.125,-133.41536,792.19251)">
      <path
         d="m 3863.54,3423.46 c 0,0 0,475.58 475.59,475.58 l 1426.73,0 c 0,0 0,-475.58 -475.58,-475.58 l -1426.74,0"
         style="fill:#68c32f;fill-opacity:1;fill-rule:nonzero;stroke:none"
         id="path10062"
         inkscape:connector-curvature="0" />
      <path
         d="m 3863.54,2815.78 c 0,0 0,475.58 475.59,475.58 l 713.36,0 c 0,0 0,-475.58 -475.59,-475.58 l -713.36,0"
         style="fill:#68c32f;fill-opacity:1;fill-rule:nonzero;stroke:none"
         id="path10064"
         inkscape:connector-curvature="0" />
      <path
         d="m 3863.54,2208.1 c 0,0 0,475.57 475.59,475.57 l 237.77,0 c 0,0 0,-475.57 -475.56,-475.57 l -237.8,0"
         style="fill:#68c32f;fill-opacity:1;fill-rule:nonzero;stroke:none"
         id="path10066"
         inkscape:connector-curvature="0" />
      <path
         d="m 3703.88,2579.23 0,-379.4 -1529.38,0 985.22,1343.92 -845.78,0 0,379.42 1595.48,0 -980.67,-1343.94 775.13,0"
         style="fill:#68c32f;fill-opacity:1;fill-rule:nonzero;stroke:none"
         id="path10068"
         inkscape:connector-curvature="0" />
    </g>
  </g>
</svg>
